<?xml version="1.0" encoding="utf-8"?>
<!-- Generator: Adobe Illustrator 21.0.2, SVG Export Plug-In . SVG Version: 6.00 Build 0)  -->
<svg version="1.1" id="Camada_1" xmlns="http://www.w3.org/2000/svg" xmlns:xlink="http://www.w3.org/1999/xlink" x="0px" y="0px"
	 viewBox="0 0 512 512" style="enable-background:new 0 0 512 512;" xml:space="preserve">
<style type="text/css">
	.st0{fill:#5298BC;}
</style>
<g>
	<path class="st0" d="M256,148.1c4.5,0,8.2-3.7,8.2-8.2v-32.7c0-4.5-3.7-8.2-8.2-8.2c-4.5,0-8.2,3.7-8.2,8.2v32.7
		C247.8,144.4,251.5,148.1,256,148.1z"/>
	<path class="st0" d="M256,390.9c4.5,0,8.2-3.7,8.2-8.2V172.6c0-4.5-3.7-8.2-8.2-8.2c-4.5,0-8.2,3.7-8.2,8.2v210.1
		C247.8,387.2,251.5,390.9,256,390.9z"/>
	<path class="st0" d="M503.8,82.3c-4.5,0-8.2,3.7-8.2,8.2v342.1H287.3c-4.2,0-8.1,2-10.5,5.3l-7,8.2l-27.5,0l-7-8.2
		c-2.5-3.4-6.4-5.3-10.5-5.3H16.3V90.4c0-4.5-3.7-8.2-8.2-8.2S0,85.9,0,90.4v350.3c0,4.5,3.7,8.2,8.2,8.2h215l9.1,10.7
		c1.6,1.8,3.8,2.9,6.2,2.9l35,0c2.4,0,4.7-1,6.2-2.9l9.1-10.7h215c4.5,0,8.2-3.7,8.2-8.2V90.4C512,85.9,508.3,82.3,503.8,82.3
		L503.8,82.3z"/>
	<path class="st0" d="M40.9,416.2h183.8c9.9,0,19,4.9,24.5,13.1c1.5,2.3,4.1,3.6,6.8,3.6c2.7,0,5.3-1.4,6.8-3.6
		c5.5-8.2,14.6-13.1,24.5-13.1h183.8c4.5,0,8.2-3.7,8.2-8.2V57.8c0-4.5-3.7-8.2-8.2-8.2H287.3c-11.8,0-22.9,4.5-31.3,12.4
		c-8.4-7.9-19.5-12.4-31.3-12.4H40.9c-4.5,0-8.2,3.7-8.2,8.2V408C32.7,412.5,36.3,416.2,40.9,416.2z M49,65.9h175.7
		c9.9,0,19,4.9,24.5,13.2c1.5,2.3,4.1,3.6,6.8,3.6s5.3-1.4,6.8-3.6c5.5-8.2,14.6-13.2,24.5-13.2H463v333.9H287.3
		c-11.8,0-22.9,4.5-31.3,12.4c-8.4-7.9-19.5-12.4-31.3-12.4H49L49,65.9L49,65.9z"/>
	<path class="st0" d="M212.4,93.2h-128c-4.5,0-8.2,3.7-8.2,8.2c0,4.5,3.7,8.2,8.2,8.2h128c4.5,0,8.2-3.7,8.2-8.2
		C220.6,96.8,216.9,93.2,212.4,93.2z"/>
	<path class="st0" d="M212.4,125.9h-128c-4.5,0-8.2,3.7-8.2,8.2c0,4.5,3.7,8.2,8.2,8.2h128c4.5,0,8.2-3.7,8.2-8.2
		S216.9,125.9,212.4,125.9z"/>
	<path class="st0" d="M212.4,158.5h-128c-4.5,0-8.2,3.7-8.2,8.2s3.7,8.2,8.2,8.2h128c4.5,0,8.2-3.7,8.2-8.2S216.9,158.5,212.4,158.5
		z"/>
	<path class="st0" d="M212.4,191.2h-128c-4.5,0-8.2,3.7-8.2,8.2c0,4.5,3.7,8.2,8.2,8.2h128c4.5,0,8.2-3.7,8.2-8.2
		C220.6,194.9,216.9,191.2,212.4,191.2z"/>
	<path class="st0" d="M212.4,223.9h-128c-4.5,0-8.2,3.7-8.2,8.2c0,4.5,3.7,8.2,8.2,8.2h128c4.5,0,8.2-3.7,8.2-8.2
		C220.6,227.6,216.9,223.9,212.4,223.9z"/>
	<path class="st0" d="M84.4,272.9h64c4.5,0,8.2-3.7,8.2-8.2c0-4.5-3.7-8.2-8.2-8.2h-64c-4.5,0-8.2,3.7-8.2,8.2
		C76.3,269.3,79.9,272.9,84.4,272.9z"/>
	<path class="st0" d="M212.4,289.3h-128c-4.5,0-8.2,3.7-8.2,8.2v67c0,4.5,3.7,8.2,8.2,8.2h128c4.5,0,8.2-3.7,8.2-8.2v-67
		C220.6,292.9,216.9,289.3,212.4,289.3z M204.3,356.3H92.6v-50.7h111.7V356.3z"/>
	<path class="st0" d="M288.7,241.9h128c4.5,0,8.2-3.7,8.2-8.2s-3.7-8.2-8.2-8.2h-128c-4.5,0-8.2,3.7-8.2,8.2
		S284.2,241.9,288.7,241.9z"/>
	<path class="st0" d="M288.7,274.6h128c4.5,0,8.2-3.7,8.2-8.2c0-4.5-3.7-8.2-8.2-8.2h-128c-4.5,0-8.2,3.7-8.2,8.2
		C280.5,270.9,284.2,274.6,288.7,274.6z"/>
	<path class="st0" d="M288.7,307.3h128c4.5,0,8.2-3.7,8.2-8.2c0-4.5-3.7-8.2-8.2-8.2h-128c-4.5,0-8.2,3.7-8.2,8.2
		C280.5,303.6,284.2,307.3,288.7,307.3z"/>
	<path class="st0" d="M288.7,339.9h128c4.5,0,8.2-3.7,8.2-8.2s-3.7-8.2-8.2-8.2h-128c-4.5,0-8.2,3.7-8.2,8.2
		S284.2,339.9,288.7,339.9z"/>
	<path class="st0" d="M288.7,372.6h64c4.5,0,8.2-3.7,8.2-8.2s-3.7-8.2-8.2-8.2h-64c-4.5,0-8.2,3.7-8.2,8.2S284.2,372.6,288.7,372.6z
		"/>
	<path class="st0" d="M288.7,192.9c-4.5,0-8.2,3.7-8.2,8.2s3.7,8.2,8.2,8.2c11.7,0,21.5-2.9,30-7.8c0.4-0.2,0.8-0.4,1.2-0.7
		c13.7-8.2,23.8-21.2,32.7-34.6c8.9,13.3,19.1,26.4,32.7,34.6c0.4,0.3,0.8,0.5,1.3,0.7c8.5,4.8,18.3,7.8,30,7.8
		c4.5,0,8.2-3.7,8.2-8.2s-3.7-8.2-8.2-8.2c-6.9,0-13-1.3-18.4-3.8v-75.9c5.4-2.4,11.5-3.8,18.4-3.8c4.5,0,8.2-3.7,8.2-8.2
		c0-4.5-3.7-8.2-8.2-8.2c-11.7,0-21.5,2.9-30,7.8c-0.4,0.2-0.9,0.4-1.3,0.7c-13.7,8.2-23.8,21.2-32.7,34.6
		c-8.9-13.4-19.1-26.4-32.7-34.6c-0.4-0.3-0.8-0.5-1.2-0.7c-8.5-4.8-18.3-7.8-30-7.8c-4.5,0-8.2,3.7-8.2,8.2c0,4.5,3.7,8.2,8.2,8.2
		c6.9,0,13,1.3,18.4,3.8v75.9C301.6,191.5,295.6,192.9,288.7,192.9L288.7,192.9z M382,125.1v52.3c-7-7.2-13.2-16.3-19.6-26.1
		C368.8,141.3,374.9,132.2,382,125.1L382,125.1z M323.4,125.1c7,7.2,13.2,16.3,19.6,26.1c-6.4,9.9-12.5,19-19.6,26.1V125.1z"/>
</g>
</svg>
