<?xml version="1.0" encoding="utf-8"?>
<!-- Generator: Adobe Illustrator 21.0.2, SVG Export Plug-In . SVG Version: 6.00 Build 0)  -->
<svg version="1.1" id="Camada_1" xmlns="http://www.w3.org/2000/svg" xmlns:xlink="http://www.w3.org/1999/xlink" x="0px" y="0px"
	 viewBox="0 0 512 512" style="enable-background:new 0 0 512 512;" xml:space="preserve">
<style type="text/css">
	.st0{fill:#5298BC;}
</style>
<g>
	<path class="st0" d="M400.3,495.7h-3.5c-3.8-18.6-20.3-32.7-40-32.7H286v-17.1c26.9-0.9,54.1-6.6,80.4-17.5c2-0.8,3.6-2.4,4.4-4.4
		c0.8-2,0.8-4.3,0-6.3l-4.2-10.1c-1.7-4.2-6.5-6.1-10.7-4.4c-4.2,1.7-6.1,6.5-4.4,10.7l1,2.4c-21.9,8.1-44.3,12.4-66.6,13.2v-2.6
		c0-4.5-3.7-8.2-8.2-8.2s-8.2,3.7-8.2,8.2v2.6c-81.3-3.2-157.5-52.6-190.6-132.6C34.7,189.8,83.5,66.9,188,19l1,2.4
		c1.7,4.2,6.5,6.1,10.7,4.4c4.2-1.7,6.1-6.5,4.4-10.7L199.9,5c-1.7-4.2-6.5-6.1-10.7-4.4C71.3,49.5,15.1,185.2,63.9,303.1
		c35.7,86.3,118,139.5,205.7,142.7V463h-70.8c-19.7,0-36.2,14.1-40,32.7h-3.5c-4.5,0-8.2,3.7-8.2,8.2s3.7,8.2,8.2,8.2h245.1
		c4.5,0,8.2-3.7,8.2-8.2S404.9,495.7,400.3,495.7L400.3,495.7z M198.8,479.3h158c10.7,0,19.7,6.8,23.1,16.3H175.7
		C179.1,486.1,188.2,479.3,198.8,479.3z"/>
	<path class="st0" d="M447,296c22.4-46.6,25.7-102.1,4.4-153.5c-29.2-70.5-97.4-116-173.7-116c-24.7,0-48.9,4.8-71.8,14.4
		c-46.4,19.2-82.5,55.3-101.7,101.7C85,189,85,240,104.2,286.4c29.2,70.5,97.4,116,173.7,116c24.7,0,48.9-4.8,71.8-14.4
		c43.6-18.1,76.8-50.7,96.3-90c0.4-0.6,0.7-1.2,1-1.9C447,296.1,447,296.1,447,296z M434.8,283.6c-13.6-4.1-27.6-6.6-41.7-7.5
		c-0.8-9.9-2.1-20.1-4.1-30.7c-0.8-4.4-5.1-7.3-9.5-6.5c-4.4,0.8-7.4,5.1-6.5,9.5c1.8,9.4,3,18.5,3.7,27.3
		c-20.3,0.5-40.6,4.2-60,11.3l-28.2-68.1l67.8-28.1c3.4,8.8,6.5,17.8,9.1,26.7c1.3,4.3,5.8,6.8,10.2,5.5c4.3-1.3,6.8-5.8,5.5-10.2
		c-2.8-9.4-6-18.9-9.7-28.3l67.8-28.1C454.6,199.2,451.9,244.5,434.8,283.6L434.8,283.6z M205.5,253.3l67.8-28.1l28.2,68.1
		c-18.7,8.7-35.7,20.4-50.4,34.5C233.7,307.2,218.1,281.7,205.5,253.3L205.5,253.3z M350.1,175.7l-67.8,28.1L254,135.7
		c18.7-8.7,35.7-20.4,50.4-34.5C321.8,121.8,337.5,147.3,350.1,175.7L350.1,175.7z M178.6,122c2.1-30,11.4-51.7,26.3-62l27.7,66.9
		c-17.6,6.3-36,9.7-54.5,10.1C178.1,131.8,178.2,126.8,178.6,122z M247.7,120.6L220,53.7c17.9-3.2,39.7,5.5,62.5,25.2
		c3.7,3.2,7.3,6.6,10.9,10.3C280.1,102,264.7,112.6,247.7,120.6L247.7,120.6z M238.9,142l28.2,68.1l-67.8,28.1
		c-11.2-29-18.2-58.1-20.4-84.9C199.2,152.8,219.5,149,238.9,142z M350.6,369l-27.7-66.9c17.6-6.3,36-9.7,54.5-10.1
		C377.7,328.5,368.2,356.7,350.6,369z M307.8,308.4l27.7,66.9c-17.9,3.2-39.7-5.5-62.5-25.2c-3.7-3.2-7.3-6.6-10.9-10.3
		C275.5,327,290.9,316.4,307.8,308.4z M433,141.4l-67.8,28.1c-13.5-30.6-30.4-58-49.4-80c9.3-10.6,17.5-22.3,24.3-34.9
		C380.4,70.2,413.9,100.8,433,141.4L433,141.4z M324.3,49.3c-5.6,10-12.2,19.4-19.6,28c-3.8-3.8-7.6-7.4-11.4-10.7
		c-11.6-10.1-23.2-17.6-34.4-22.6c6.3-0.7,12.6-1.1,18.9-1.1C293.7,42.9,309.4,45.1,324.3,49.3L324.3,49.3z M170.7,80.4
		c-4.4,11.5-7.3,25.1-8.4,40.4c-0.4,5.1-0.5,10.3-0.5,15.7c-11.3-0.9-22.6-2.8-33.7-6C139,111.1,153.4,94.1,170.7,80.4z
		 M119.3,148.8c0.5-1.1,1-2.3,1.5-3.4c13.7,4.1,27.7,6.6,41.7,7.5c2.2,29,9.6,60.4,21.7,91.5l-67.8,28.1
		C101.8,232.3,102.8,188.6,119.3,148.8z M122.6,287.6l67.8-28.1c13.5,30.6,30.4,58,49.4,80c-9.3,10.6-17.5,22.3-24.3,34.9
		C175.2,358.8,141.7,328.1,122.6,287.6L122.6,287.6z M231.3,379.7c5.6-10,12.2-19.4,19.6-28c3.8,3.8,7.6,7.4,11.4,10.7
		c11.6,10.1,23.2,17.6,34.5,22.6c-6.3,0.7-12.6,1.1-19,1.1C261.8,386.1,246.2,383.9,231.3,379.7L231.3,379.7z M384.9,348.5
		c1.7-4.3,3.1-8.9,4.3-13.8c3.1-12.7,4.6-26.9,4.6-42.2c11.3,0.8,22.5,2.8,33.6,5.9C416.7,317.5,402.4,334.5,384.9,348.5z"/>
</g>
</svg>
