<?xml version="1.0" encoding="utf-8"?>
<!-- Generator: Adobe Illustrator 21.0.2, SVG Export Plug-In . SVG Version: 6.00 Build 0)  -->
<svg version="1.1" id="Camada_1" xmlns="http://www.w3.org/2000/svg" xmlns:xlink="http://www.w3.org/1999/xlink" x="0px" y="0px"
	 viewBox="0 0 512 512" style="enable-background:new 0 0 512 512;" xml:space="preserve">
<style type="text/css">
	.st0{fill:#5298BC;}
</style>
<g>
	<path class="st0" d="M411.2,206.8V81.6c12.2-1.4,21.8-11.8,21.8-24.4c0-13.5-11-24.5-24.5-24.5H299.6c-13.5,0-24.5,11-24.5,24.5
		c0,12.6,9.5,23,21.8,24.4v125.2c-24.7,9.6-46.7,25.3-63.8,45.8c-2.9,3.5-2.5,8.6,1,11.5c1.5,1.3,3.4,1.9,5.2,1.9
		c2.3,0,4.6-1,6.3-2.9c16.5-19.7,38-34.5,62.2-42.9c3.3-1.1,5.5-4.2,5.5-7.7V81.7h46.3c4.5,0,8.2-3.7,8.2-8.2c0-4.5-3.7-8.2-8.2-8.2
		h-59.9c-4.5,0-8.2-3.7-8.2-8.2s3.7-8.2,8.2-8.2h108.9c4.5,0,8.2,3.7,8.2,8.2s-3.7,8.2-8.2,8.2h-16.3c-4.5,0-8.2,3.7-8.2,8.2
		c0,4.5,3.7,8.2,8.2,8.2h2.7v130.8c0,3.5,2.2,6.6,5.5,7.7c57,19.7,95.3,73.5,95.3,133.8c0,78.1-63.5,141.6-141.6,141.6
		c-18.4,0-36.3-3.5-53.3-10.4c-4.2-1.7-8.9,0.3-10.6,4.5c-1.7,4.2,0.3,8.9,4.5,10.6c18.9,7.7,38.9,11.6,59.4,11.6
		C441.1,512,512,441.1,512,354C512,288.7,471.7,230.3,411.2,206.8L411.2,206.8z"/>
	<circle class="st0" cx="414.9" cy="382.8" r="8.2"/>
	<circle class="st0" cx="382.3" cy="415.4" r="8.2"/>
	<path class="st0" d="M307.9,452.7c-4.1-1.9-8.9-0.2-10.9,3.9c-1.9,4.1-0.2,8.9,3.9,10.9c16.7,7.8,34.5,11.8,53.1,11.8
		c69.1,0,125.3-56.2,125.3-125.3c0-22-5.8-43.7-16.8-62.6c-1.7-2.9-4.9-4.5-8.2-4l-3,0.4c-0.4,0.1-0.7,0.1-1.1,0.2
		c-12.4,3.5-19,8.9-24.4,13.2c-5.9,4.8-9.8,7.9-21.1,7.9c-9.7,0-14-3.7-20-8.9c-6.7-5.7-15-12.9-30.7-12.9c-15.7,0-24,7.1-30.7,12.9
		c-6,5.2-10.4,8.9-20,8.9c-11.3,0-15.2-3.1-21.1-7.9c-5.4-4.3-12-9.6-24.4-13.2c-0.4-0.1-0.7-0.2-1.1-0.2l-3-0.4
		c-3.3-0.5-6.5,1.1-8.2,4c-0.1,0.1-0.1,0.2-0.2,0.4c-2.2,3.9-0.9,8.9,3,11.2c1.7,1,3.6,1.3,5.4,1l0.1,0c8.8,2.6,13.3,6.2,18.1,10
		c7,5.7,14.3,11.5,31.4,11.5c15.7,0,24-7.1,30.7-12.9c6-5.2,10.4-8.9,20-8.9c9.7,0,14,3.7,20,8.9c6.7,5.7,15,12.9,30.7,12.9
		c17.1,0,24.3-5.9,31.4-11.5c4.2-3.4,8.2-6.6,15.1-9.1C459,320,463,336.9,463,354c0,60.1-48.9,108.9-108.9,108.9
		C337.9,463,322.4,459.5,307.9,452.7L307.9,452.7z"/>
	<path class="st0" d="M197.2,211.1V48.9c12.2-1.4,21.8-11.8,21.8-24.4C219,11,208,0,194.5,0H85.5C72,0,61,11,61,24.5
		c0,12.6,9.5,23,21.8,24.4v130.9c0,4.5,3.7,8.2,8.2,8.2c4.5,0,8.2-3.7,8.2-8.2V49h46.3c4.5,0,8.2-3.7,8.2-8.2s-3.7-8.2-8.2-8.2H85.5
		c-4.5,0-8.2-3.7-8.2-8.2s3.7-8.2,8.2-8.2h108.9c4.5,0,8.2,3.7,8.2,8.2s-3.7,8.2-8.2,8.2h-16.3c-4.5,0-8.2,3.7-8.2,8.2
		s3.7,8.2,8.2,8.2h2.7v163.4c0,0.9,0.2,1.8,0.4,2.7l79.4,229.6c4.8,13.9,3.7,26.7-3,36.2c-6.8,9.5-18.6,14.7-33.2,14.7H55.6
		c-14.7,0-26.5-5.2-33.2-14.7c-6.8-9.5-7.8-22.4-3-36.2l79.4-229.6c1.5-4.3-0.8-8.9-5-10.4c-4.3-1.5-8.9,0.8-10.4,5L3.9,439.4
		c-6.6,19-4.7,37.1,5.2,51S35.5,512,55.6,512h168.8c20.1,0,36.6-7.7,46.5-21.6c9.9-13.9,11.7-32,5.2-51L197.2,211.1L197.2,211.1z"/>
	<path class="st0" d="M70.4,379.9c-2.1-1.6-4.8-2.1-7.3-1.4c-2.5,0.8-4.5,2.7-5.4,5.2l-22.9,66.3c-3,8.7-2.7,16.3,0.9,21.4
		c3.6,5.1,10.7,7.9,19.9,7.9h168.8c9.2,0,16.3-2.8,19.9-7.9c3.6-5.1,3.9-12.7,0.9-21.4l-22.9-66.3c-0.9-2.5-2.9-4.4-5.4-5.2
		c-2.5-0.8-5.3-0.2-7.3,1.4c-4.5,3.5-8.7,6.1-18.9,6.1c-9.7,0-14-3.7-20-8.9c-6.7-5.7-15-12.9-30.7-12.9c-15.7,0-24,7.1-30.7,12.9
		c-6,5.2-10.4,8.9-20,8.9C79.1,386,74.9,383.4,70.4,379.9L70.4,379.9z M120,389.5c6-5.2,10.4-8.9,20-8.9c9.7,0,14,3.7,20,8.9
		c6.7,5.7,15,12.9,30.7,12.9c8.5,0,14.7-1.5,19.5-3.7l19.6,56.7c1.2,3.4,1.2,5.5,1.1,6.5c-0.9,0.4-3,1.1-6.5,1.1H55.6
		c-3.5,0-5.6-0.7-6.5-1.1c-0.1-0.9-0.1-3.1,1.1-6.5l19.6-56.7c4.8,2.2,10.9,3.7,19.5,3.7C105,402.4,113.3,395.2,120,389.5L120,389.5
		z"/>
</g>
</svg>
