<?xml version="1.0" encoding="utf-8"?>
<!-- Generator: Adobe Illustrator 21.0.2, SVG Export Plug-In . SVG Version: 6.00 Build 0)  -->
<svg version="1.1" id="Capa_1" xmlns="http://www.w3.org/2000/svg" xmlns:xlink="http://www.w3.org/1999/xlink" x="0px" y="0px"
	 viewBox="0 0 112.2 112.2" style="enable-background:new 0 0 112.2 112.2;" xml:space="preserve">
<style type="text/css">
	.st0{fill:#FFFFFF;}
</style>
<path class="st0" d="M19.7,58.6c-0.2,9.7,6.4,18.9,15.6,21.9c8.6,2.9,19.2,0.7,24.9-6.6c4.2-5.2,5.1-12.1,4.7-18.5
	c-7.4-0.1-14.8,0-22.1,0c0,2.6,0,5.2,0,7.9c4.4,0.1,8.8,0.1,13.3,0.2c-1.1,3.8-3.7,7.4-7.5,8.8c-7.4,3.3-16.9-1-19.3-8.8
	c-2.8-7.5,1.8-16.5,9.4-18.7c4.7-1.7,9.6,0.2,13.7,2.7c2.1-1.9,4-4,5.9-6.1c-4.6-3.9-10.5-6.2-16.6-5.7
	C29.7,35.7,19.3,46.7,19.7,58.6z"/>
<path class="st0" d="M79.3,48.7c0,2.2,0,4.4-0.1,6.6c-2.2,0-4.4,0-6.6,0c0,2.2,0,4.4,0,6.6c2.2,0,4.4,0,6.6,0c0,2.2,0,4.4,0,6.6
	c2.2,0,4.4,0,6.6,0c0-2.2,0-4.4,0-6.6c2.2,0,4.4,0,6.6,0c0-2.2,0-4.4,0-6.6c-2.2,0-4.4,0-6.6,0c0-2.2,0-4.4,0-6.6
	C83.7,48.7,81.5,48.7,79.3,48.7z"/>
</svg>
