<?xml version="1.0" encoding="utf-8"?>
<!-- Generator: Adobe Illustrator 21.0.2, SVG Export Plug-In . SVG Version: 6.00 Build 0)  -->
<svg version="1.1" id="Capa_1" xmlns="http://www.w3.org/2000/svg" xmlns:xlink="http://www.w3.org/1999/xlink" x="0px" y="0px"
	 viewBox="0 0 112.2 112.2" style="enable-background:new 0 0 112.2 112.2;" xml:space="preserve">
<style type="text/css">
	.st0{fill:#CCCCCC;}
</style>
<path class="st0" d="M0,56C-0.3,70.9,9.8,85,24,89.6c13.2,4.4,29.5,1.1,38.2-10.1c6.4-8,7.8-18.6,7.2-28.4c-11.4-0.2-22.7,0-33.9,0
	c0,4,0,8,0,12.1c6.8,0.2,13.5,0.2,20.4,0.3c-1.7,5.8-5.7,11.4-11.5,13.5C33,82.1,18.4,75.5,14.7,63.5C10.5,52,17.5,38.2,29.2,34.8
	c7.2-2.6,14.7,0.3,21,4.1c3.2-2.9,6.1-6.1,9.1-9.4c-7.1-6-16.1-9.5-25.5-8.7C15.4,20.8-0.6,37.7,0,56z"/>
<path class="st0" d="M91.5,40.8c0,3.4,0,6.8-0.2,10.1c-3.4,0-6.8,0-10.1,0c0,3.4,0,6.8,0,10.1c3.4,0,6.8,0,10.1,0
	c0,3.4,0,6.8,0,10.1c3.4,0,6.8,0,10.1,0c0-3.4,0-6.8,0-10.1c3.4,0,6.8,0,10.1,0c0-3.4,0-6.8,0-10.1c-3.4,0-6.8,0-10.1,0
	c0-3.4,0-6.8,0-10.1C98.2,40.8,94.8,40.8,91.5,40.8z"/>
</svg>
