<?xml version="1.0" encoding="utf-8"?>
<!-- Generator: Adobe Illustrator 21.0.2, SVG Export Plug-In . SVG Version: 6.00 Build 0)  -->
<svg version="1.1" id="Calque_1" xmlns="http://www.w3.org/2000/svg" xmlns:xlink="http://www.w3.org/1999/xlink" x="0px" y="0px"
	 viewBox="0 0 62 62" style="enable-background:new 0 0 62 62;" xml:space="preserve">
<style type="text/css">
	.st0{fill:none;}
	.st1{fill:#263776;}
</style>
<rect class="st0" width="62" height="62"/>
<g>
	<path class="st1" d="M45,43.8l-6.9-6.9c1.9-2.1,3-4.9,3-8c0-6.7-5.5-12.2-12.2-12.2s-12.2,5.5-12.2,12.2s5.5,12.2,12.2,12.2
		c3,0,5.8-1.1,8-3l6.9,6.9c0.2,0.2,0.4,0.3,0.6,0.3c0.2,0,0.4-0.1,0.6-0.3C45.3,44.7,45.3,44.1,45,43.8z M18.5,28.9
		c0-5.8,4.7-10.4,10.4-10.4c5.8,0,10.4,4.7,10.4,10.4s-4.7,10.5-10.4,10.5C23.1,39.4,18.5,34.7,18.5,28.9z"/>
</g>
</svg>
