<?xml version="1.0" encoding="utf-8"?>
<!-- Generator: Adobe Illustrator 19.0.0, SVG Export Plug-In . SVG Version: 6.00 Build 0)  -->
<svg version="1.1" id="Capa_1" xmlns="http://www.w3.org/2000/svg" xmlns:xlink="http://www.w3.org/1999/xlink" x="0px" y="0px"
	 viewBox="60.3 -229.3 62 62" style="enable-background:new 60.3 -229.3 62 62;" xml:space="preserve">
<style type="text/css">
	.st0{fill:#FFFFFF;}
</style>
<g>
	<g>
		<path class="st0" d="M74-208.9h34.6c0.9,0,1.6-0.7,1.6-1.6c0-0.9-0.7-1.6-1.6-1.6H74c-0.9,0-1.6,0.7-1.6,1.6
			C72.4-209.6,73.1-208.9,74-208.9z"/>
		<path class="st0" d="M74-196.7h34.6c0.9,0,1.6-0.7,1.6-1.6c0-0.9-0.7-1.6-1.6-1.6H74c-0.9,0-1.6,0.7-1.6,1.6
			C72.4-197.4,73.1-196.7,74-196.7z"/>
		<path class="st0" d="M74-184.6h34.6c0.9,0,1.6-0.7,1.6-1.6c0-0.9-0.7-1.6-1.6-1.6H74c-0.9,0-1.6,0.7-1.6,1.6
			C72.4-185.3,73.1-184.6,74-184.6z"/>
	</g>
</g>
</svg>
