<?xml version="1.0" encoding="utf-8"?>
<!-- Generator: Adobe Illustrator 21.0.2, SVG Export Plug-In . SVG Version: 6.00 Build 0)  -->
<svg version="1.1" id="Capa_1" xmlns="http://www.w3.org/2000/svg" xmlns:xlink="http://www.w3.org/1999/xlink" x="0px" y="0px"
	 viewBox="0 0 62 62" style="enable-background:new 0 0 62 62;" xml:space="preserve">
<style type="text/css">
	.st0{fill:#263776;}
</style>
<g>
	<g>
		<path class="st0" d="M13.7,20.5h34.6c0.9,0,1.6-0.7,1.6-1.6s-0.7-1.6-1.6-1.6H13.7c-0.9,0-1.6,0.7-1.6,1.6S12.8,20.5,13.7,20.5z"
			/>
		<path class="st0" d="M13.7,32.7h34.6c0.9,0,1.6-0.7,1.6-1.6s-0.7-1.6-1.6-1.6H13.7c-0.9,0-1.6,0.7-1.6,1.6
			C12.1,32,12.8,32.7,13.7,32.7z"/>
		<path class="st0" d="M13.7,44.8h34.6c0.9,0,1.6-0.7,1.6-1.6s-0.7-1.6-1.6-1.6H13.7c-0.9,0-1.6,0.7-1.6,1.6S12.8,44.8,13.7,44.8z"
			/>
	</g>
</g>
</svg>
