<?xml version="1.0" standalone="no"?>
<!DOCTYPE svg PUBLIC "-//W3C//DTD SVG 1.1//EN" "http://www.w3.org/Graphics/SVG/1.1/DTD/svg11.dtd">
<svg width="100%" height="100%" viewBox="0 0 2481 3508" version="1.1" xmlns="http://www.w3.org/2000/svg" xmlns:xlink="http://www.w3.org/1999/xlink" xml:space="preserve" style="fill-rule:evenodd;clip-rule:evenodd;stroke-linejoin:round;stroke-miterlimit:1.41421;">
    <g transform="matrix(6.09816,0,0,3.57606,-6320.41,-4466.66)">
        <g id="Nome">
            <g>
                <g transform="matrix(0.164593,0,0,0.280676,981.186,1283.98)">
                    <path d="M1185.23,1825.37L1195.78,1824.34C1196.41,1827.88 1197.7,1830.48 1199.64,1832.14C1201.58,1833.8 1204.2,1834.63 1207.5,1834.63C1210.99,1834.63 1213.62,1833.89 1215.39,1832.42C1217.16,1830.94 1218.05,1829.21 1218.05,1827.24C1218.05,1825.97 1217.67,1824.88 1216.93,1823.99C1216.18,1823.1 1214.88,1822.33 1213.03,1821.67C1211.76,1821.23 1208.87,1820.45 1204.35,1819.33C1198.54,1817.88 1194.46,1816.11 1192.12,1814.02C1188.82,1811.06 1187.17,1807.46 1187.17,1803.21C1187.17,1800.48 1187.95,1797.92 1189.5,1795.54C1191.05,1793.16 1193.28,1791.35 1196.2,1790.1C1199.12,1788.86 1202.64,1788.23 1206.77,1788.23C1213.5,1788.23 1218.58,1789.71 1221.98,1792.66C1225.39,1795.62 1227.18,1799.56 1227.35,1804.49L1216.51,1804.97C1216.04,1802.21 1215.05,1800.23 1213.52,1799.02C1212,1797.81 1209.71,1797.2 1206.66,1797.2C1203.51,1797.2 1201.04,1797.85 1199.26,1799.15C1198.11,1799.98 1197.54,1801.09 1197.54,1802.48C1197.54,1803.75 1198.07,1804.84 1199.15,1805.74C1200.52,1806.89 1203.84,1808.08 1209.11,1809.33C1214.38,1810.57 1218.28,1811.86 1220.81,1813.19C1223.34,1814.52 1225.31,1816.34 1226.74,1818.65C1228.17,1820.95 1228.88,1823.81 1228.88,1827.2C1228.88,1830.27 1228.03,1833.15 1226.32,1835.84C1224.61,1838.53 1222.19,1840.52 1219.07,1841.83C1215.94,1843.13 1212.05,1843.79 1207.39,1843.79C1200.6,1843.79 1195.39,1842.22 1191.75,1839.08C1188.11,1835.94 1185.94,1831.37 1185.23,1825.37Z" style="fill:rgb(32,62,124);fill-rule:nonzero;"/>
                </g>
                <g transform="matrix(0.164593,0,0,0.280676,981.186,1283.98)">
                    <path d="M1238.24,1816.32C1238.24,1810.85 1239.06,1806.26 1240.7,1802.55C1241.92,1799.82 1243.58,1797.36 1245.7,1795.19C1247.81,1793.02 1250.12,1791.41 1252.64,1790.36C1255.98,1788.94 1259.84,1788.23 1264.21,1788.23C1272.12,1788.23 1278.45,1790.69 1283.2,1795.59C1287.94,1800.5 1290.32,1807.33 1290.32,1816.07C1290.32,1824.73 1287.96,1831.51 1283.25,1836.41C1278.54,1841.3 1272.24,1843.75 1264.35,1843.75C1256.37,1843.75 1250.02,1841.32 1245.31,1836.44C1240.6,1831.57 1238.24,1824.87 1238.24,1816.32ZM1249.41,1815.95C1249.41,1822.04 1250.82,1826.64 1253.62,1829.78C1256.43,1832.92 1260,1834.49 1264.32,1834.49C1268.64,1834.49 1272.18,1832.93 1274.96,1829.82C1277.73,1826.7 1279.11,1822.04 1279.11,1815.81C1279.11,1809.66 1277.76,1805.07 1275.07,1802.04C1272.37,1799.01 1268.79,1797.5 1264.32,1797.5C1259.85,1797.5 1256.25,1799.03 1253.52,1802.09C1250.78,1805.16 1249.41,1809.78 1249.41,1815.95Z" style="fill:rgb(32,62,124);fill-rule:nonzero;"/>
                </g>
                <g transform="matrix(0.164593,0,0,0.280676,981.186,1283.98)">
                    <path d="M1301.29,1842.84L1301.29,1789.15L1338.09,1789.15L1338.09,1798.23L1312.13,1798.23L1312.13,1810.94L1334.54,1810.94L1334.54,1820.02L1312.13,1820.02L1312.13,1842.84L1301.29,1842.84Z" style="fill:rgb(32,62,124);fill-rule:nonzero;"/>
                </g>
                <g transform="matrix(0.164593,0,0,0.280676,981.186,1283.98)">
                    <path d="M1361.55,1842.84L1361.55,1798.23L1345.62,1798.23L1345.62,1789.15L1388.29,1789.15L1388.29,1798.23L1372.39,1798.23L1372.39,1842.84L1361.55,1842.84Z" style="fill:rgb(32,62,124);fill-rule:nonzero;"/>
                </g>
                <g transform="matrix(0.164593,0,0,0.280676,981.186,1283.98)">
                    <path d="M1405.33,1842.84L1392.52,1789.15L1403.61,1789.15L1411.71,1826.03L1421.52,1789.15L1434.41,1789.15L1443.82,1826.65L1452.06,1789.15L1462.98,1789.15L1449.94,1842.84L1438.44,1842.84L1427.75,1802.7L1417.09,1842.84L1405.33,1842.84Z" style="fill:rgb(32,62,124);fill-rule:nonzero;"/>
                </g>
                <g transform="matrix(0.164593,0,0,0.280676,981.186,1283.98)">
                    <path d="M1515.22,1842.84L1503.43,1842.84L1498.74,1830.64L1477.28,1830.64L1472.85,1842.84L1461.35,1842.84L1482.26,1789.15L1493.72,1789.15L1515.22,1842.84ZM1495.26,1821.6L1487.86,1801.67L1480.61,1821.6L1495.26,1821.6Z" style="fill:rgb(32,62,124);fill-rule:nonzero;"/>
                </g>
                <g transform="matrix(0.164593,0,0,0.280676,981.186,1283.98)">
                    <path d="M1523.44,1842.84L1523.44,1789.15L1546.26,1789.15C1551.99,1789.15 1556.16,1789.63 1558.76,1790.6C1561.36,1791.56 1563.44,1793.28 1565.01,1795.74C1566.57,1798.21 1567.35,1801.03 1567.35,1804.2C1567.35,1808.23 1566.17,1811.56 1563.8,1814.18C1561.43,1816.8 1557.89,1818.46 1553.18,1819.14C1555.52,1820.51 1557.46,1822.01 1558.98,1823.65C1560.51,1825.28 1562.57,1828.19 1565.15,1832.36L1571.71,1842.84L1558.74,1842.84L1550.91,1831.15C1548.12,1826.98 1546.22,1824.35 1545.19,1823.26C1544.17,1822.17 1543.08,1821.43 1541.93,1821.03C1540.79,1820.62 1538.97,1820.42 1536.48,1820.42L1534.28,1820.42L1534.28,1842.84L1523.44,1842.84ZM1534.28,1811.85L1542.3,1811.85C1547.5,1811.85 1550.75,1811.63 1552.04,1811.19C1553.34,1810.76 1554.35,1810 1555.08,1808.92C1555.81,1807.85 1556.18,1806.51 1556.18,1804.9C1556.18,1803.09 1555.7,1801.63 1554.73,1800.52C1553.77,1799.41 1552.41,1798.71 1550.65,1798.41C1549.77,1798.29 1547.13,1798.23 1542.74,1798.23L1534.28,1798.23L1534.28,1811.85Z" style="fill:rgb(32,62,124);fill-rule:nonzero;"/>
                </g>
                <g transform="matrix(0.164593,0,0,0.280676,981.186,1283.98)">
                    <path d="M1580.01,1842.84L1580.01,1789.15L1619.81,1789.15L1619.81,1798.23L1590.85,1798.23L1590.85,1810.13L1617.8,1810.13L1617.8,1819.18L1590.85,1819.18L1590.85,1833.79L1620.84,1833.79L1620.84,1842.84L1580.01,1842.84Z" style="fill:rgb(32,62,124);fill-rule:nonzero;"/>
                </g>
                <g transform="matrix(0.164593,0,0,0.280676,981.186,1283.98)">
                    <path d="M1655.74,1842.84L1655.74,1789.15L1673.14,1789.15C1679.73,1789.15 1684.03,1789.42 1686.03,1789.95C1689.1,1790.76 1691.68,1792.51 1693.75,1795.21C1695.83,1797.91 1696.87,1801.39 1696.87,1805.66C1696.87,1808.96 1696.27,1811.73 1695.07,1813.98C1693.88,1816.22 1692.36,1817.99 1690.51,1819.27C1688.67,1820.55 1686.8,1821.4 1684.89,1821.82C1682.3,1822.33 1678.56,1822.58 1673.65,1822.58L1666.58,1822.58L1666.58,1842.84L1655.74,1842.84ZM1666.58,1798.23L1666.58,1813.47L1672.51,1813.47C1676.79,1813.47 1679.64,1813.18 1681.08,1812.62C1682.52,1812.06 1683.65,1811.18 1684.47,1809.99C1685.29,1808.79 1685.7,1807.4 1685.7,1805.81C1685.7,1803.86 1685.12,1802.25 1683.98,1800.98C1682.83,1799.71 1681.38,1798.91 1679.62,1798.6C1678.33,1798.35 1675.73,1798.23 1671.82,1798.23L1666.58,1798.23Z" style="fill:rgb(32,62,124);fill-rule:nonzero;"/>
                </g>
                <g transform="matrix(0.164593,0,0,0.280676,981.186,1283.98)">
                    <path d="M1708.24,1842.84L1708.24,1789.15L1731.06,1789.15C1736.79,1789.15 1740.96,1789.63 1743.56,1790.6C1746.16,1791.56 1748.24,1793.28 1749.81,1795.74C1751.37,1798.21 1752.15,1801.03 1752.15,1804.2C1752.15,1808.23 1750.97,1811.56 1748.6,1814.18C1746.23,1816.8 1742.69,1818.46 1737.98,1819.14C1740.32,1820.51 1742.26,1822.01 1743.78,1823.65C1745.31,1825.28 1747.36,1828.19 1749.95,1832.36L1756.51,1842.84L1743.54,1842.84L1735.71,1831.15C1732.92,1826.98 1731.02,1824.35 1729.99,1823.26C1728.97,1822.17 1727.88,1821.43 1726.73,1821.03C1725.59,1820.62 1723.77,1820.42 1721.28,1820.42L1719.08,1820.42L1719.08,1842.84L1708.24,1842.84ZM1719.08,1811.85L1727.1,1811.85C1732.3,1811.85 1735.55,1811.63 1736.84,1811.19C1738.13,1810.76 1739.15,1810 1739.88,1808.92C1740.61,1807.85 1740.98,1806.51 1740.98,1804.9C1740.98,1803.09 1740.5,1801.63 1739.53,1800.52C1738.57,1799.41 1737.21,1798.71 1735.45,1798.41C1734.57,1798.29 1731.93,1798.23 1727.54,1798.23L1719.08,1798.23L1719.08,1811.85Z" style="fill:rgb(32,62,124);fill-rule:nonzero;"/>
                </g>
                <g transform="matrix(0.164593,0,0,0.280676,981.186,1283.98)">
                    <path d="M1813.22,1842.84L1801.42,1842.84L1796.74,1830.64L1775.28,1830.64L1770.85,1842.84L1759.35,1842.84L1780.26,1789.15L1791.72,1789.15L1813.22,1842.84ZM1793.26,1821.6L1785.86,1801.67L1778.61,1821.6L1793.26,1821.6Z" style="fill:rgb(32,62,124);fill-rule:nonzero;"/>
                </g>
                <g transform="matrix(0.164593,0,0,0.280676,981.186,1283.98)">
                    <path d="M1855.75,1823.1L1866.27,1826.43C1864.65,1832.29 1861.97,1836.64 1858.23,1839.49C1854.48,1842.33 1849.72,1843.75 1843.96,1843.75C1836.83,1843.75 1830.97,1841.32 1826.38,1836.44C1821.79,1831.57 1819.5,1824.91 1819.5,1816.47C1819.5,1807.53 1821.81,1800.59 1826.42,1795.65C1831.04,1790.7 1837.1,1788.23 1844.62,1788.23C1851.19,1788.23 1856.52,1790.17 1860.62,1794.06C1863.07,1796.35 1864.9,1799.65 1866.12,1803.94L1855.39,1806.51C1854.75,1803.72 1853.43,1801.53 1851.41,1799.91C1849.4,1798.3 1846.95,1797.5 1844.07,1797.5C1840.09,1797.5 1836.86,1798.93 1834.39,1801.78C1831.91,1804.64 1830.67,1809.27 1830.67,1815.66C1830.67,1822.45 1831.89,1827.28 1834.33,1830.16C1836.77,1833.05 1839.95,1834.49 1843.85,1834.49C1846.73,1834.49 1849.21,1833.57 1851.29,1831.74C1853.36,1829.91 1854.85,1827.03 1855.75,1823.1Z" style="fill:rgb(32,62,124);fill-rule:nonzero;"/>
                </g>
                <g transform="matrix(0.164593,0,0,0.280676,981.186,1283.98)">
                    <path d="M1890.09,1842.84L1890.09,1798.23L1874.16,1798.23L1874.16,1789.15L1916.82,1789.15L1916.82,1798.23L1900.93,1798.23L1900.93,1842.84L1890.09,1842.84Z" style="fill:rgb(32,62,124);fill-rule:nonzero;"/>
                </g>
                <g transform="matrix(0.164593,0,0,0.280676,981.186,1283.98)">
                    <rect x="1925.92" y="1789.15" width="10.84" height="53.687" style="fill:rgb(32,62,124);fill-rule:nonzero;"/>
                </g>
                <g transform="matrix(0.164593,0,0,0.280676,981.186,1283.98)">
                    <path d="M1983.88,1823.1L1994.39,1826.43C1992.78,1832.29 1990.1,1836.64 1986.35,1839.49C1982.6,1842.33 1977.85,1843.75 1972.09,1843.75C1964.96,1843.75 1959.1,1841.32 1954.51,1836.44C1949.92,1831.57 1947.62,1824.91 1947.62,1816.47C1947.62,1807.53 1949.93,1800.59 1954.55,1795.65C1959.16,1790.7 1965.23,1788.23 1972.75,1788.23C1979.31,1788.23 1984.65,1790.17 1988.75,1794.06C1991.19,1796.35 1993.02,1799.65 1994.24,1803.94L1983.51,1806.51C1982.88,1803.72 1981.55,1801.53 1979.54,1799.91C1977.53,1798.3 1975.08,1797.5 1972.2,1797.5C1968.22,1797.5 1964.99,1798.93 1962.51,1801.78C1960.03,1804.64 1958.79,1809.27 1958.79,1815.66C1958.79,1822.45 1960.02,1827.28 1962.46,1830.16C1964.9,1833.05 1968.07,1834.49 1971.98,1834.49C1974.86,1834.49 1977.34,1833.57 1979.41,1831.74C1981.49,1829.91 1982.98,1827.03 1983.88,1823.1Z" style="fill:rgb(32,62,124);fill-rule:nonzero;"/>
                </g>
                <g transform="matrix(0.164593,0,0,0.280676,981.186,1283.98)">
                    <path d="M2006.13,1842.84L2006.13,1789.15L2045.94,1789.15L2045.94,1798.23L2016.97,1798.23L2016.97,1810.13L2043.92,1810.13L2043.92,1819.18L2016.97,1819.18L2016.97,1833.79L2046.96,1833.79L2046.96,1842.84L2006.13,1842.84Z" style="fill:rgb(32,62,124);fill-rule:nonzero;"/>
                </g>
                <g transform="matrix(0.164593,0,0,0.280676,981.186,1283.98)">
                    <path d="M2055.85,1825.37L2066.39,1824.34C2067.03,1827.88 2068.31,1830.48 2070.26,1832.14C2072.2,1833.8 2074.81,1834.63 2078.11,1834.63C2081.6,1834.63 2084.23,1833.89 2086,1832.42C2087.77,1830.94 2088.66,1829.21 2088.66,1827.24C2088.66,1825.97 2088.28,1824.88 2087.54,1823.99C2086.8,1823.1 2085.5,1822.33 2083.64,1821.67C2082.37,1821.23 2079.48,1820.45 2074.96,1819.33C2069.15,1817.88 2065.07,1816.11 2062.73,1814.02C2059.43,1811.06 2057.79,1807.46 2057.79,1803.21C2057.79,1800.48 2058.56,1797.92 2060.11,1795.54C2061.66,1793.16 2063.89,1791.35 2066.81,1790.1C2069.73,1788.86 2073.25,1788.23 2077.38,1788.23C2084.12,1788.23 2089.19,1789.71 2092.59,1792.66C2096,1795.62 2097.79,1799.56 2097.96,1804.49L2087.12,1804.97C2086.66,1802.21 2085.66,1800.23 2084.13,1799.02C2082.61,1797.81 2080.32,1797.2 2077.27,1797.2C2074.12,1797.2 2071.65,1797.85 2069.87,1799.15C2068.72,1799.98 2068.15,1801.09 2068.15,1802.48C2068.15,1803.75 2068.69,1804.84 2069.76,1805.74C2071.13,1806.89 2074.45,1808.08 2079.72,1809.33C2084.99,1810.57 2088.89,1811.86 2091.42,1813.19C2093.95,1814.52 2095.93,1816.34 2097.36,1818.65C2098.78,1820.95 2099.5,1823.81 2099.5,1827.2C2099.5,1830.27 2098.64,1833.15 2096.93,1835.84C2095.22,1838.53 2092.81,1840.52 2089.68,1841.83C2086.56,1843.13 2082.66,1843.79 2078,1843.79C2071.21,1843.79 2066,1842.22 2062.36,1839.08C2058.73,1835.94 2056.55,1831.37 2055.85,1825.37Z" style="fill:rgb(32,62,124);fill-rule:nonzero;"/>
                </g>
                <g transform="matrix(0.164593,0,0,0.280676,981.186,1283.98)">
                    <path d="M2134.62,1842.84L2134.62,1789.59L2145.46,1789.59L2145.46,1833.79L2172.41,1833.79L2172.41,1842.84L2134.62,1842.84Z" style="fill:rgb(32,62,124);fill-rule:nonzero;"/>
                </g>
                <g transform="matrix(0.164593,0,0,0.280676,981.186,1283.98)">
                    <path d="M2230.99,1842.84L2219.2,1842.84L2214.51,1830.64L2193.05,1830.64L2188.62,1842.84L2177.12,1842.84L2198.03,1789.15L2209.49,1789.15L2230.99,1842.84ZM2211.03,1821.6L2203.64,1801.67L2196.39,1821.6L2211.03,1821.6Z" style="fill:rgb(32,62,124);fill-rule:nonzero;"/>
                </g>
                <g transform="matrix(0.164593,0,0,0.280676,981.186,1283.98)">
                    <path d="M2239.22,1789.15L2260.68,1789.15C2264.92,1789.15 2268.09,1789.33 2270.18,1789.68C2272.27,1790.03 2274.13,1790.77 2275.78,1791.89C2277.43,1793.02 2278.8,1794.51 2279.9,1796.38C2281,1798.25 2281.55,1800.34 2281.55,1802.66C2281.55,1805.18 2280.87,1807.48 2279.52,1809.58C2278.16,1811.68 2276.33,1813.26 2274.01,1814.31C2277.28,1815.26 2279.79,1816.88 2281.55,1819.18C2283.31,1821.47 2284.19,1824.17 2284.19,1827.27C2284.19,1829.71 2283.62,1832.09 2282.48,1834.39C2281.35,1836.7 2279.8,1838.55 2277.83,1839.92C2275.87,1841.3 2273.44,1842.15 2270.56,1842.47C2268.76,1842.66 2264.4,1842.79 2257.49,1842.84L2239.22,1842.84L2239.22,1789.15ZM2250.05,1798.08L2250.05,1810.5L2257.16,1810.5C2261.38,1810.5 2264.01,1810.44 2265.03,1810.32C2266.89,1810.1 2268.35,1809.45 2269.41,1808.39C2270.47,1807.33 2271,1805.93 2271,1804.2C2271,1802.54 2270.55,1801.19 2269.63,1800.15C2268.71,1799.12 2267.35,1798.49 2265.55,1798.27C2264.47,1798.14 2261.38,1798.08 2256.28,1798.08L2250.05,1798.08ZM2250.05,1819.43L2250.05,1833.79L2260.09,1833.79C2264,1833.79 2266.47,1833.68 2267.52,1833.46C2269.14,1833.17 2270.45,1832.45 2271.46,1831.32C2272.47,1830.18 2272.98,1828.66 2272.98,1826.76C2272.98,1825.15 2272.59,1823.78 2271.81,1822.66C2271.03,1821.53 2269.9,1820.72 2268.42,1820.2C2266.94,1819.69 2263.74,1819.43 2258.81,1819.43L2250.05,1819.43Z" style="fill:rgb(32,62,124);fill-rule:nonzero;"/>
                </g>
                <g transform="matrix(0.164593,0,0,0.280676,981.186,1283.98)">
                    <path d="M2293.58,1816.32C2293.58,1810.85 2294.4,1806.26 2296.03,1802.55C2297.26,1799.82 2298.92,1797.36 2301.03,1795.19C2303.15,1793.02 2305.46,1791.41 2307.97,1790.36C2311.32,1788.94 2315.18,1788.23 2319.55,1788.23C2327.46,1788.23 2333.78,1790.69 2338.53,1795.59C2343.28,1800.5 2345.66,1807.33 2345.66,1816.07C2345.66,1824.73 2343.3,1831.51 2338.59,1836.41C2333.88,1841.3 2327.58,1843.75 2319.69,1843.75C2311.71,1843.75 2305.36,1841.32 2300.65,1836.44C2295.94,1831.57 2293.58,1824.87 2293.58,1816.32ZM2304.75,1815.95C2304.75,1822.04 2306.16,1826.64 2308.96,1829.78C2311.77,1832.92 2315.33,1834.49 2319.66,1834.49C2323.98,1834.49 2327.52,1832.93 2330.29,1829.82C2333.07,1826.7 2334.45,1822.04 2334.45,1815.81C2334.45,1809.66 2333.1,1805.07 2330.4,1802.04C2327.71,1799.01 2324.12,1797.5 2319.66,1797.5C2315.19,1797.5 2311.59,1799.03 2308.85,1802.09C2306.12,1805.16 2304.75,1809.78 2304.75,1815.95Z" style="fill:rgb(32,62,124);fill-rule:nonzero;"/>
                </g>
                <g transform="matrix(0.164593,0,0,0.280676,981.186,1283.98)">
                    <path d="M2356.59,1842.84L2356.59,1789.15L2379.41,1789.15C2385.14,1789.15 2389.31,1789.63 2391.91,1790.6C2394.51,1791.56 2396.59,1793.28 2398.16,1795.74C2399.72,1798.21 2400.5,1801.03 2400.5,1804.2C2400.5,1808.23 2399.32,1811.56 2396.95,1814.18C2394.58,1816.8 2391.04,1818.46 2386.33,1819.14C2388.67,1820.51 2390.61,1822.01 2392.13,1823.65C2393.66,1825.28 2395.71,1828.19 2398.3,1832.36L2404.86,1842.84L2391.89,1842.84L2384.06,1831.15C2381.27,1826.98 2379.37,1824.35 2378.34,1823.26C2377.32,1822.17 2376.23,1821.43 2375.08,1821.03C2373.94,1820.62 2372.12,1820.42 2369.63,1820.42L2367.43,1820.42L2367.43,1842.84L2356.59,1842.84ZM2367.43,1811.85L2375.45,1811.85C2380.65,1811.85 2383.9,1811.63 2385.19,1811.19C2386.49,1810.76 2387.5,1810 2388.23,1808.92C2388.96,1807.85 2389.33,1806.51 2389.33,1804.9C2389.33,1803.09 2388.85,1801.63 2387.88,1800.52C2386.92,1799.41 2385.56,1798.71 2383.8,1798.41C2382.92,1798.29 2380.28,1798.23 2375.89,1798.23L2367.43,1798.23L2367.43,1811.85Z" style="fill:rgb(32,62,124);fill-rule:nonzero;"/>
                </g>
                <g transform="matrix(0.164593,0,0,0.280676,981.186,1283.98)">
                    <path d="M2461.57,1842.84L2449.78,1842.84L2445.09,1830.64L2423.63,1830.64L2419.2,1842.84L2407.7,1842.84L2428.61,1789.15L2440.07,1789.15L2461.57,1842.84ZM2441.61,1821.6L2434.21,1801.67L2426.96,1821.6L2441.61,1821.6Z" style="fill:rgb(32,62,124);fill-rule:nonzero;"/>
                </g>
                <g transform="matrix(0.164593,0,0,0.280676,981.186,1283.98)">
                    <path d="M2476.27,1842.84L2476.27,1798.23L2460.34,1798.23L2460.34,1789.15L2503.01,1789.15L2503.01,1798.23L2487.11,1798.23L2487.11,1842.84L2476.27,1842.84Z" style="fill:rgb(32,62,124);fill-rule:nonzero;"/>
                </g>
                <g transform="matrix(0.164593,0,0,0.280676,981.186,1283.98)">
                    <path d="M2508.89,1816.32C2508.89,1810.85 2509.7,1806.26 2511.34,1802.55C2512.56,1799.82 2514.23,1797.36 2516.34,1795.19C2518.45,1793.02 2520.76,1791.41 2523.28,1790.36C2526.62,1788.94 2530.48,1788.23 2534.85,1788.23C2542.76,1788.23 2549.09,1790.69 2553.84,1795.59C2558.59,1800.5 2560.96,1807.33 2560.96,1816.07C2560.96,1824.73 2558.61,1831.51 2553.89,1836.41C2549.18,1841.3 2542.88,1843.75 2535,1843.75C2527.01,1843.75 2520.66,1841.32 2515.95,1836.44C2511.24,1831.57 2508.89,1824.87 2508.89,1816.32ZM2520.05,1815.95C2520.05,1822.04 2521.46,1826.64 2524.27,1829.78C2527.07,1832.92 2530.64,1834.49 2534.96,1834.49C2539.28,1834.49 2542.83,1832.93 2545.6,1829.82C2548.37,1826.7 2549.76,1822.04 2549.76,1815.81C2549.76,1809.66 2548.41,1805.07 2545.71,1802.04C2543.01,1799.01 2539.43,1797.5 2534.96,1797.5C2530.49,1797.5 2526.89,1799.03 2524.16,1802.09C2521.42,1805.16 2520.05,1809.78 2520.05,1815.95Z" style="fill:rgb(32,62,124);fill-rule:nonzero;"/>
                </g>
                <g transform="matrix(0.164593,0,0,0.280676,981.186,1283.98)">
                    <path d="M2571.89,1842.84L2571.89,1789.15L2594.71,1789.15C2600.45,1789.15 2604.62,1789.63 2607.22,1790.6C2609.82,1791.56 2611.9,1793.28 2613.46,1795.74C2615.02,1798.21 2615.8,1801.03 2615.8,1804.2C2615.8,1808.23 2614.62,1811.56 2612.25,1814.18C2609.88,1816.8 2606.34,1818.46 2601.63,1819.14C2603.97,1820.51 2605.91,1822.01 2607.43,1823.65C2608.96,1825.28 2611.02,1828.19 2613.61,1832.36L2620.16,1842.84L2607.2,1842.84L2599.36,1831.15C2596.58,1826.98 2594.67,1824.35 2593.65,1823.26C2592.62,1822.17 2591.54,1821.43 2590.39,1821.03C2589.24,1820.62 2587.42,1820.42 2584.93,1820.42L2582.73,1820.42L2582.73,1842.84L2571.89,1842.84ZM2582.73,1811.85L2590.75,1811.85C2595.95,1811.85 2599.2,1811.63 2600.5,1811.19C2601.79,1810.76 2602.8,1810 2603.53,1808.92C2604.27,1807.85 2604.63,1806.51 2604.63,1804.9C2604.63,1803.09 2604.15,1801.63 2603.19,1800.52C2602.22,1799.41 2600.86,1798.71 2599.1,1798.41C2598.22,1798.29 2595.59,1798.23 2591.19,1798.23L2582.73,1798.23L2582.73,1811.85Z" style="fill:rgb(32,62,124);fill-rule:nonzero;"/>
                </g>
                <g transform="matrix(0.164593,0,0,0.280676,981.186,1283.98)">
                    <path d="M2639.77,1842.84L2639.77,1820.24L2620.11,1789.15L2632.82,1789.15L2645.45,1810.39L2657.83,1789.15L2670.32,1789.15L2650.58,1820.31L2650.58,1842.84L2639.77,1842.84Z" style="fill:rgb(32,62,124);fill-rule:nonzero;"/>
                </g>
            </g>
        </g>
    </g>
    <g id="Simbolo">
        <g>
            <g transform="matrix(5.99097,0,0,5.99097,-6179.81,-8751.05)">
                <path d="M1079.06,1754.44C1079.06,1754.44 1082.15,1740.38 1097.57,1730.9C1112.98,1721.42 1132.19,1725.62 1132.19,1725.62C1132.19,1725.62 1127.22,1718.61 1116.99,1714.33C1111.85,1712.18 1106.5,1710.49 1098.7,1710.69C1098.62,1710.69 1100.14,1709.23 1103.75,1708.05C1107.41,1706.86 1111.89,1707.05 1111.89,1707.05C1111.89,1707.05 1107.02,1704.17 1096.62,1707.05C1092.02,1708.33 1087.37,1710.48 1082.13,1715.7C1077.11,1720.7 1072.42,1729.11 1073.39,1739.29C1073.84,1743.99 1074.93,1749.98 1079.06,1754.44Z" style="fill:rgb(34,62,125);"/>
            </g>
            <g transform="matrix(5.99097,0,0,5.99097,-6179.81,-8751.05)">
                <path d="M1108.05,1709.07C1108.05,1709.07 1130.55,1706.84 1142.64,1719.95C1154.74,1733.07 1151.6,1751.53 1151.6,1751.53C1151.6,1751.53 1150.29,1745.33 1147.02,1739.08C1144.19,1733.67 1139.54,1728.54 1136.22,1725.26C1133.01,1722.08 1127.14,1717.16 1121.61,1714.2C1114.8,1710.56 1108.05,1709.07 1108.05,1709.07Z" style="fill:rgb(34,62,125);"/>
            </g>
            <g transform="matrix(-2.96184,-5.20761,5.20761,-2.96184,-5413.09,12697.6)">
                <path d="M1079.06,1754.44C1079.06,1754.44 1082.15,1740.38 1097.57,1730.9C1112.98,1721.42 1132.19,1725.62 1132.19,1725.62C1132.19,1725.62 1127.22,1718.61 1116.99,1714.33C1111.85,1712.18 1106.5,1710.49 1098.7,1710.69C1098.62,1710.69 1100.14,1709.23 1103.75,1708.05C1107.41,1706.86 1111.89,1707.05 1111.89,1707.05C1111.89,1707.05 1107.02,1704.17 1096.62,1707.05C1092.02,1708.33 1087.37,1710.48 1082.13,1715.7C1077.11,1720.7 1072.42,1729.11 1073.39,1739.29C1073.84,1743.99 1074.93,1749.98 1079.06,1754.44Z" style="fill:rgb(83,153,189);"/>
            </g>
            <g transform="matrix(-2.96184,-5.20761,5.20761,-2.96184,-5413.09,12697.6)">
                <path d="M1108.05,1709.07C1108.05,1709.07 1130.55,1706.84 1142.64,1719.95C1154.74,1733.07 1151.6,1751.53 1151.6,1751.53C1151.6,1751.53 1150.29,1745.33 1147.02,1739.08C1144.19,1733.67 1139.54,1728.54 1136.22,1725.26C1133.01,1722.08 1127.14,1717.16 1121.61,1714.2C1114.8,1710.56 1108.05,1709.07 1108.05,1709.07Z" style="fill:rgb(83,153,189);"/>
            </g>
            <g transform="matrix(-3.37571,4.98434,-5.01563,-3.35464,12972.5,2126.76)">
                <path d="M1079.06,1754.44C1079.06,1754.44 1082.15,1740.38 1097.57,1730.9C1112.98,1721.42 1132.19,1725.62 1132.19,1725.62C1132.19,1725.62 1127.22,1718.61 1116.99,1714.33C1111.85,1712.18 1106.5,1710.49 1098.7,1710.69C1098.62,1710.69 1100.14,1709.23 1103.75,1708.05C1107.41,1706.86 1111.89,1707.05 1111.89,1707.05C1111.89,1707.05 1107.02,1704.17 1096.62,1707.05C1092.02,1708.33 1087.37,1710.48 1082.13,1715.7C1077.11,1720.7 1072.42,1729.11 1073.39,1739.29C1073.84,1743.99 1074.93,1749.98 1079.06,1754.44Z" style="fill:rgb(1,117,152);"/>
            </g>
            <g transform="matrix(-3.37571,4.98434,-5.01563,-3.35464,12972.5,2126.76)">
                <path d="M1108.05,1709.07C1108.05,1709.07 1130.55,1706.84 1142.64,1719.95C1154.74,1733.07 1151.6,1751.53 1151.6,1751.53C1151.6,1751.53 1150.29,1745.33 1147.02,1739.08C1144.19,1733.67 1139.54,1728.54 1136.22,1725.26C1133.01,1722.08 1127.14,1717.16 1121.61,1714.2C1114.8,1710.56 1108.05,1709.07 1108.05,1709.07Z" style="fill:rgb(1,117,152);"/>
            </g>
        </g>
    </g>
    <g id="Tipografia">
        <g>
            <path d="M2017.06,1576.92L2017.06,1880.16L2229.55,1880.16C2302.78,1880.3 2345.06,1861.13 2342.88,1795.79C2342.26,1743.04 2307.85,1727.28 2266.94,1724.51C2301.26,1716.84 2326.81,1694.15 2325.58,1655.33C2323.87,1601.12 2284.39,1578.47 2229.55,1576.92L2017.06,1576.92ZM2141.4,1754.7L2141.4,1807.89L2183.51,1807.89C2204.76,1807.71 2214.6,1798.53 2213.03,1780.34C2214.27,1763.62 2203.76,1755.56 2183.51,1754.7L2141.4,1754.7ZM2140.74,1648.22L2140.74,1700.46L2174.85,1700.46C2192.06,1700.29 2200.03,1691.27 2198.76,1673.4C2199.75,1656.98 2191.24,1649.07 2174.85,1648.22L2140.74,1648.22Z" style="fill:rgb(32,62,124);"/>
            <g transform="matrix(5.99097,0,0,5.82776,-6185.81,-8467.02)">
                <path d="M1273,1723.5C1272.93,1723.46 1273.61,1775.49 1273.61,1775.49L1305.81,1775.49L1313.12,1759.23L1296.03,1759.23L1296.03,1723.5C1296.03,1723.5 1290.53,1723.51 1284.91,1723.52C1279.04,1723.52 1273.04,1723.52 1273,1723.5Z" style="fill:rgb(80,155,186);"/>
            </g>
            <path d="M1777.16,1577.59L1934.43,1577.59L2017.41,1771.92L2017.41,1880.13L1923.21,1880.13L1906.99,1843.88L1801.71,1843.88L1786.7,1880.13L1636.38,1880.13L1777.16,1577.59ZM1824.68,1771.92L1883.11,1771.92L1857.42,1671.05L1846.85,1671.05L1824.68,1771.92Z" style="fill:rgb(1,119,141);"/>
            <path d="M1136.45,1577.41L1136.45,1880.07L1273.82,1880.07L1273.82,1789.75L1352.74,1789.75C1389.98,1788.52 1420.65,1779.84 1443.37,1762.15L1443.37,1618.37C1420.15,1592.97 1391.07,1578.62 1352.74,1577.41L1243.33,1577.41L1136.45,1577.41ZM1273.55,1664.57L1273.55,1720.83L1323.53,1720.83C1341.79,1720.64 1346.79,1712.13 1347.06,1691.57C1348.26,1673.34 1343.24,1665.34 1323.53,1664.57L1273.55,1664.57Z" style="fill:rgb(32,63,128);"/>
            <g transform="matrix(5.99097,0,0,5.99097,-6179.81,-8751.05)">
                <path d="M1221.29,1734.82L1217.68,1739.93C1217.68,1739.93 1212.57,1737.42 1208.07,1736.1C1201.95,1734.29 1198.95,1736.34 1198.25,1737.79C1197.75,1738.81 1197.52,1741.29 1199.95,1742.45C1202.99,1743.91 1210.8,1743.64 1214.99,1744.75C1220.06,1746.09 1221.29,1748.66 1221.29,1748.66L1221.29,1768.07C1221.29,1768.07 1214.07,1773.4 1204.97,1774.3C1201.12,1774.67 1194.94,1774.7 1191.1,1774.3C1183.75,1773.52 1173.89,1770.07 1173.89,1770.07L1173.89,1755.1C1173.89,1755.1 1184.18,1760.03 1188.46,1761.14C1189.62,1761.44 1196.78,1762.25 1199.95,1761.14C1201.86,1760.47 1202.58,1758.02 1201.31,1756.57C1199.33,1754.29 1197.25,1755.51 1187.24,1753.41C1181.8,1752.27 1176.96,1750.39 1175.23,1747.29C1173.82,1744.77 1173.1,1739.47 1175.23,1734.82C1177.52,1729.8 1184.93,1726.82 1186.38,1726.17C1191.04,1724.09 1204.76,1723.2 1211.83,1724.76C1213.78,1725.19 1221.29,1727.59 1221.29,1727.59C1221.29,1727.59 1221.03,1734.84 1221.29,1734.82Z" style="fill:rgb(32,63,128);"/>
            </g>
        </g>
    </g>
</svg>
