<?xml version="1.0" encoding="UTF-8"?>
<svg width="1737px" height="1803px" viewBox="0 0 1737 1803" version="1.1" xmlns="http://www.w3.org/2000/svg" xmlns:xlink="http://www.w3.org/1999/xlink">
    <!-- Generator: Sketch 41.2 (35397) - http://www.bohemiancoding.com/sketch -->
    <title>Artboard</title>
    <desc>Created with Sketch.</desc>
    <defs></defs>
    <g id="Page-1" stroke="none" stroke-width="1" fill="none" fill-rule="evenodd">
        <g id="Artboard">
            <g id="Splab-Svg" transform="translate(140.000000, 84.000000)">
                <g id="Group" transform="translate(4.026160, 1425.607100)" fill="#203E7C">
                    <g id="Nome">
                        <g id="Group">
                            <g transform="translate(1.394680, 2.963438)" id="Shape">
                                <path d="M0.230854323,37.5088003 L10.8200418,36.4749746 C11.4523819,40.028123 12.7471735,42.6377799 14.6943795,44.3039455 C16.6415856,45.9701111 19.2713174,46.8031939 22.5835751,46.8031939 C26.0865385,46.8031939 28.7263075,46.0604454 30.5028821,44.5849855 C32.2794567,43.0994885 33.1727625,41.3630629 33.1727625,39.3857459 C33.1727625,38.1110288 32.791351,37.0169803 32.0486024,36.1236747 C31.2958165,35.230369 29.9909877,34.4575091 28.134116,33.7950577 C26.8593987,33.3534234 23.9586639,32.5705263 19.4218746,31.4463664 C13.5902936,29.9909808 9.49513869,28.2144066 7.14644688,26.1166439 C3.83418919,23.1456498 2.17806035,19.5322787 2.17806035,15.2664932 C2.17806035,12.5263534 2.96095762,9.95684503 4.51671502,7.56800519 C6.07247242,5.17916536 8.31075564,3.36244263 11.2416018,2.10779985 C14.172448,0.863194226 17.7055229,0.23085427 21.8508636,0.23085427 C28.6058618,0.23085427 33.7047312,1.71635131 37.1173603,4.67730825 C40.5400266,7.64830233 42.3366755,11.6029363 42.5073069,16.5512474 L31.6270423,17.0330303 C31.1552965,14.262779 30.1616192,12.2754249 28.6259361,11.0609307 C27.1002901,9.84643646 24.801784,9.23417079 21.740455,9.23417079 C18.5787544,9.23417079 16.0995798,9.88658503 14.312968,11.1914135 C13.1586964,12.0244963 12.5865792,13.1386191 12.5865792,14.5337819 C12.5865792,15.8084989 13.1185478,16.9025474 14.2025595,17.8058902 C15.5776482,18.9601616 18.9099802,20.1545815 24.1995554,21.4092242 C29.4891305,22.6538299 33.4036169,23.9486212 35.9430144,25.2835611 C38.482412,26.618501 40.4597294,28.4452609 41.8950411,30.7638407 C43.3303528,33.0723834 44.04299,35.9430061 44.04299,39.3455973 C44.04299,42.4269999 43.1898327,45.3176969 41.473481,48.0176881 C39.7571293,50.7176794 37.3281404,52.7150707 34.1965513,54.0299363 C31.054925,55.3347648 27.1504758,55.9972161 22.4731665,55.9972161 C15.6579454,55.9972161 10.4285931,54.4213848 6.77507253,51.2697222 C3.12155194,48.1180595 0.943491582,43.5310856 0.230854323,37.5088003 Z"></path>
                            </g>
                            <g transform="translate(54.591545, 2.963438)" id="Shape">
                                <path d="M0.240891468,28.4251866 C0.240891468,22.9348698 1.06393732,18.3278216 2.71002901,14.6040419 C3.93456064,11.863902 5.60072662,9.39476507 7.72860126,7.21670522 C9.84643874,5.03864537 12.1650191,3.42266548 14.6943795,2.36876555 C18.0467858,0.943491364 21.9211236,0.23085427 26.3073557,0.23085427 C34.246737,0.23085427 40.6002495,2.69999124 45.3678931,7.6181909 C50.1254996,12.5464277 52.51434,19.4017958 52.51434,28.1742581 C52.51434,36.8664232 50.1455739,43.6716056 45.4180788,48.5898052 C40.6905838,53.4979677 34.3671827,55.9570676 26.4478757,55.9570676 C18.4382344,55.9570676 12.0646477,53.518042 7.33715262,48.6199167 C2.60965757,43.7318284 0.240891468,37.0069432 0.240891468,28.4251866 Z M11.4523819,28.0538124 C11.4523819,34.1664319 12.8676192,38.7835173 15.6780197,41.93518 C18.4984573,45.0868426 22.0817179,46.6626739 26.4177643,46.6626739 C30.7538107,46.6626739 34.3069599,45.0968798 37.097286,41.9753285 C39.8775751,38.8437402 41.262701,34.1664319 41.262701,27.9132924 C41.262701,21.7404499 39.9076865,17.1334017 37.2076946,14.0921476 C34.4976656,11.0508935 30.9043679,9.53528506 26.4177643,9.53528506 C21.9311607,9.53528506 18.3177887,11.0709678 15.5776482,14.1423333 C12.8274707,17.223736 11.4523819,21.8608956 11.4523819,28.0538124 Z"></path>
                            </g>
                            <g transform="translate(117.825556, 3.967152)" id="Shape">
                                <polygon points="0.29107719 54.0399734 0.29107719 0.150557132 37.2277689 0.150557132 37.2277689 9.26428222 11.1713418 9.26428222 11.1713418 22.0214899 33.6645826 22.0214899 33.6645826 31.135215 11.1713418 31.135215 11.1713418 54.0399734"></polygon>
                            </g>
                            <g transform="translate(161.988992, 3.967152)" id="Shape">
                                <polygon points="16.6114741 54.0399734 16.6114741 9.26428222 0.622302958 9.26428222 0.622302958 0.150557132 43.4507985 0.150557132 43.4507985 9.26428222 27.4917388 9.26428222 27.4917388 54.0399734"></polygon>
                            </g>
                            <g transform="translate(209.163571, 3.967152)" id="Shape">
                                <polygon points="13.3795136 54.0399734 0.521931513 0.150557132 11.6531248 0.150557132 19.7832118 37.1675374 29.6296505 0.150557132 42.5675298 0.150557132 52.0124827 37.7898403 60.2830898 0.150557132 71.2436516 0.150557132 58.1552152 54.0399734 46.612499 54.0399734 35.8827915 13.7508848 25.1831955 54.0399734"></polygon>
                            </g>
                            <g transform="translate(278.419868, 3.967152)" id="Shape">
                                <path d="M54.4213974,54.0399734 L42.5876041,54.0399734 L37.8801833,41.79466 L16.3404712,41.79466 L11.8940162,54.0399734 L0.351300057,54.0399734 L21.3389692,0.150557132 L32.8415368,0.150557132 L54.4213974,54.0399734 Z M34.387257,32.7210835 L26.9597701,12.7170591 L19.6828403,32.7210835 L34.387257,32.7210835 Z"></path>
                            </g>
                            <g transform="translate(340.650163, 3.967152)" id="Shape">
                                <path d="M0.441634358,54.0399734 L0.441634358,0.150557132 L23.3463981,0.150557132 C29.0976819,0.150557132 33.2831711,0.632339956 35.8928287,1.60594275 C38.5024863,2.56950839 40.5902123,4.29589685 42.166044,6.76503382 C43.7318385,9.24420793 44.5147358,12.074682 44.5147358,15.2564561 C44.5147358,19.3014244 43.3303528,22.6437927 40.9515495,25.273524 C38.5727463,27.9032552 35.0195971,29.5694208 30.2921021,30.2519465 C32.6407939,31.627035 34.5879999,33.1326063 36.1136459,34.7786976 C37.649329,36.4147518 39.7169807,39.3355601 42.306564,43.5210484 L48.8909308,54.0399734 L35.8727544,54.0399734 L28.0136703,42.3065542 C25.213307,38.1210659 23.3062495,35.4812976 22.2724236,34.3872491 C21.2486349,33.2932006 20.1545861,32.550452 19.0003145,32.1489664 C17.85608,31.7374435 16.0293197,31.5367007 13.5300708,31.5367007 L11.321899,31.5367007 L11.321899,54.0399734 L0.441634358,54.0399734 Z M11.321899,22.9348698 L19.3716889,22.9348698 C24.591004,22.9348698 27.853076,22.7140527 29.1478676,22.2724185 C30.4526964,21.8408214 31.466448,21.0779985 32.1991595,19.9939872 C32.9318711,18.920013 33.3032454,17.5750359 33.3032454,15.959056 C33.3032454,14.1423333 32.8214625,12.6769106 31.8478595,11.5627878 C30.8842936,10.448665 29.5192419,9.74606504 27.7527045,9.44495078 C26.8694358,9.32450507 24.2196297,9.26428222 19.8133232,9.26428222 L11.321899,9.26428222 L11.321899,22.9348698 Z"></path>
                            </g>
                            <g transform="translate(397.861887, 3.967152)" id="Shape">
                                <polygon points="0.0100371445 54.0399734 0.0100371445 0.150557132 39.9578722 0.150557132 39.9578722 9.26428222 10.8903018 9.26428222 10.8903018 21.2084814 37.9404062 21.2084814 37.9404062 30.2920951 10.8903018 30.2920951 10.8903018 44.9563598 40.9916981 44.9563598 40.9916981 54.0399734"></polygon>
                            </g>
                            <g transform="translate(473.140471, 3.967152)" id="Shape">
                                <path d="M0.742748692,54.0399734 L0.742748692,0.150557132 L18.2073801,0.150557132 C24.8218583,0.150557132 29.1378305,0.421559971 31.1452593,0.953528506 C34.2266627,1.76653702 36.816246,3.5230369 38.8939349,6.23306528 C40.9816609,8.94309367 42.025524,12.4360191 42.025524,16.7218788 C42.025524,20.0341358 41.4232953,22.8144241 40.218838,25.0727811 C39.0244178,27.321101 37.4987718,29.0976751 35.6419001,30.3824293 C33.7950655,31.6671835 31.9181195,32.5203406 30.0010249,32.9419006 C27.4014045,33.4537948 23.6475124,33.7047234 18.7192745,33.7047234 L11.6230133,33.7047234 L11.6230133,54.0399734 L0.742748692,54.0399734 Z M11.6230133,9.26428222 L11.6230133,24.5608869 L17.57504,24.5608869 C21.8709378,24.5608869 24.731524,24.2698098 26.1768728,23.7077298 C27.6222216,23.1456498 28.756419,22.2623813 29.5794648,21.0679614 C30.4025107,19.8635043 30.8140336,18.4683416 30.8140336,16.872436 C30.8140336,14.9151933 30.2318792,13.2992134 29.0876447,12.0244963 C27.9333731,10.7497793 26.4779872,9.94680789 24.7114497,9.63565648 C23.4166581,9.38472792 20.8070005,9.26428222 16.882477,9.26428222 L11.6230133,9.26428222 Z"></path>
                            </g>
                            <g transform="translate(526.337336, 3.967152)" id="Shape">
                                <path d="M0.240891468,54.0399734 L0.240891468,0.150557132 L23.1456552,0.150557132 C28.896939,0.150557132 33.0824282,0.632339956 35.6920858,1.60594275 C38.3017434,2.56950839 40.3894694,4.29589685 41.9653011,6.76503382 C43.5310956,9.24420793 44.3139929,12.074682 44.3139929,15.2564561 C44.3139929,19.3014244 43.1296099,22.6437927 40.7508066,25.273524 C38.3720034,27.9032552 34.8188542,29.5694208 30.0913592,30.2519465 C32.440051,31.627035 34.387257,33.1326063 35.912903,34.7786976 C37.4485861,36.4147518 39.5062007,39.3355601 42.1058211,43.5210484 L48.6901879,54.0399734 L35.6720115,54.0399734 L27.8129274,42.3065542 C25.0125641,38.1210659 23.1055066,35.4812976 22.0716807,34.3872491 C21.047892,33.2932006 19.9538432,32.550452 18.7995716,32.1489664 C17.6553372,31.7374435 15.8285769,31.5367007 13.3293279,31.5367007 L11.1211561,31.5367007 L11.1211561,54.0399734 L0.240891468,54.0399734 Z M11.1211561,22.9348698 L19.170946,22.9348698 C24.3902611,22.9348698 27.6523331,22.7140527 28.9471247,22.2724185 C30.2419163,21.8408214 31.2657051,21.0779985 31.9984166,19.9939872 C32.7311282,18.920013 33.1025025,17.5750359 33.1025025,15.959056 C33.1025025,14.1423333 32.6207196,12.6769106 31.6471166,11.5627878 C30.6835507,10.448665 29.3184991,9.74606504 27.5519616,9.44495078 C26.6686929,9.32450507 24.0188868,9.26428222 19.6125803,9.26428222 L11.1211561,9.26428222 L11.1211561,22.9348698 Z"></path>
                            </g>
                            <g transform="translate(577.526773, 3.967152)" id="Shape">
                                <path d="M54.4213974,54.0399734 L42.5775669,54.0399734 L37.8801833,41.79466 L16.3404712,41.79466 L11.8940162,54.0399734 L0.351300057,54.0399734 L21.3389692,0.150557132 L32.8415368,0.150557132 L54.4213974,54.0399734 Z M34.387257,32.7210835 L26.9597701,12.7170591 L19.6828403,32.7210835 L34.387257,32.7210835 Z"></path>
                            </g>
                            <g transform="translate(637.749640, 2.963438)" id="Shape">
                                <path d="M36.886506,35.230369 L47.445582,38.5727373 C45.8195646,44.4545027 43.1296099,48.8206595 39.3757178,51.681245 C35.6117886,54.5317934 30.8341079,55.9570676 25.0527126,55.9570676 C17.8962286,55.9570676 12.014462,53.518042 7.40741263,48.6199167 C2.80036331,43.7318284 0.501857224,37.0470917 0.501857224,28.5757437 C0.501857224,19.6025386 2.8204376,12.636762 7.44756121,7.67841376 C12.084722,2.71002838 18.1672315,0.23085427 25.7151642,0.23085427 C32.3095681,0.23085427 37.6593661,2.17805985 41.7745954,6.08250815 C44.2336958,8.38101371 46.0704932,11.6932706 47.2950248,15.9992046 L36.5251688,18.5787501 C35.8827915,15.7783875 34.5578885,13.5802534 32.5303853,11.9542363 C30.5129192,10.3382564 28.0538188,9.53528506 25.1631212,9.53528506 C21.1683377,9.53528506 17.9263401,10.9705964 15.4471654,13.8311819 C12.9579535,16.7018046 11.7133476,21.3490014 11.7133476,27.7627352 C11.7133476,34.5779548 12.9378792,39.4258944 15.3869425,42.3165914 C17.8360058,45.2173255 21.0278177,46.6626739 24.9423041,46.6626739 C27.8330017,46.6626739 30.3222135,45.7392568 32.4099396,43.9024598 C34.4876285,42.0656628 35.983163,39.1749659 36.886506,35.230369 Z"></path>
                            </g>
                            <g transform="translate(692.953935, 3.967152)" id="Shape">
                                <polygon points="16.1497655 54.0399734 16.1497655 9.26428222 0.160594312 9.26428222 0.160594312 0.150557132 42.9790527 0.150557132 42.9790527 9.26428222 27.0300301 9.26428222 27.0300301 54.0399734"></polygon>
                            </g>
                            <g transform="translate(744.143372, 3.967152)" id="Rectangle-path">
                                <rect x="0.923417293" y="0.150557132" width="10.8802646" height="53.8864051"></rect>
                            </g>
                            <g transform="translate(766.225090, 2.963438)" id="Shape">
                                <path d="M37.0169889,35.230369 L47.5660277,38.5727373 C45.9500475,44.4545027 43.2600927,48.8206595 39.4961636,51.681245 C35.7322344,54.5317934 30.9645907,55.9570676 25.1831955,55.9570676 C18.0267115,55.9570676 12.1449448,53.518042 7.53789551,48.6199167 C2.93084619,43.7318284 0.622302958,37.0470917 0.622302958,28.5757437 C0.622302958,19.6025386 2.94088334,12.636762 7.57804409,7.67841376 C12.2051677,2.71002838 18.2977144,0.23085427 25.8456471,0.23085427 C32.4300138,0.23085427 37.789849,2.17805985 41.9050782,6.08250815 C44.3541415,8.38101371 46.1909389,11.6932706 47.4154706,15.9992046 L36.6456145,18.5787501 C36.0132744,15.7783875 34.6783342,13.5802534 32.6608682,11.9542363 C30.6434021,10.3382564 28.1843017,9.53528506 25.2936041,9.53528506 C21.2988206,9.53528506 18.0568229,10.9705964 15.5676111,13.8311819 C13.0783993,16.7018046 11.8337934,21.3490014 11.8337934,27.7627352 C11.8337934,34.5779548 13.0683621,39.4258944 15.5174254,42.3165914 C17.9664886,45.2173255 21.1482634,46.6626739 25.0727869,46.6626739 C27.9634845,46.6626739 30.4526964,45.7392568 32.5303853,43.9024598 C34.6181113,42.0656628 36.1136459,39.1749659 37.0169889,35.230369 Z"></path>
                            </g>
                            <g transform="translate(825.444242, 3.967152)" id="Shape">
                                <polygon points="0.130482878 54.0399734 0.130482878 0.150557132 40.0883551 0.150557132 40.0883551 9.26428222 11.0107475 9.26428222 11.0107475 21.2084814 38.0608519 21.2084814 38.0608519 30.2920951 11.0107475 30.2920951 11.0107475 44.9563598 41.1121438 44.9563598 41.1121438 54.0399734"></polygon>
                            </g>
                            <g transform="translate(874.626250, 2.963438)" id="Shape">
                                <path d="M0.853157282,37.5088003 L11.4323076,36.4749746 C12.0746848,40.028123 13.3594393,42.6377799 15.3166825,44.3039455 C17.2638885,45.9701111 19.8835832,46.8031939 23.1958409,46.8031939 C26.6988043,46.8031939 29.3385733,46.0604454 31.1151479,44.5849855 C32.8917225,43.0994885 33.7850283,41.3630629 33.7850283,39.3857459 C33.7850283,38.1110288 33.4036169,37.0169803 32.6608682,36.1236747 C31.9181195,35.230369 30.6132907,34.4575091 28.7463818,33.7950577 C27.4716645,33.3534234 24.5709297,32.5705263 20.0341404,31.4463664 C14.2025595,29.9909808 10.1074045,28.2144066 7.75871269,26.1166439 C4.44645501,23.1456498 2.80036331,19.5322787 2.80036331,15.2664932 C2.80036331,12.5263534 3.57322344,9.95684503 5.12898083,7.56800519 C6.68473823,5.17916536 8.92302145,3.36244263 11.8538676,2.10779985 C14.7847138,0.863194226 18.3177887,0.23085427 22.4631294,0.23085427 C29.2281648,0.23085427 34.316997,1.71635131 37.7296261,4.67730825 C41.1522924,7.64830233 42.9489413,11.6029363 43.1195727,16.5512474 L32.2393081,17.0330303 C31.7775995,14.262779 30.773885,12.2754249 29.2382019,11.0609307 C27.7125559,9.84643646 25.4140498,9.23417079 22.3527208,9.23417079 C19.1910203,9.23417079 16.7118456,9.88658503 14.9252339,11.1914135 C13.7709622,12.0244963 13.198845,13.1386191 13.198845,14.5337819 C13.198845,15.8084989 13.7408508,16.9025474 14.8148253,17.8058902 C16.1899141,18.9601616 19.522246,20.1545815 24.8118212,21.4092242 C30.1013963,22.6538299 34.0158827,23.9486212 36.5552802,25.2835611 C39.0946778,26.618501 41.0820324,28.4452609 42.5173441,30.7638407 C43.9426186,33.0723834 44.665293,35.9430061 44.665293,39.3455973 C44.665293,42.4269999 43.8020985,45.3176969 42.0857468,48.0176881 C40.3693951,50.7176794 37.9504433,52.7150707 34.8088171,54.0299363 C31.677228,55.3347648 27.7627417,55.9972161 23.0854323,55.9972161 C16.2702112,55.9972161 11.0408589,54.4213848 7.38733834,51.2697222 C3.74385489,48.1180595 1.5557574,43.5310856 0.853157282,37.5088003 Z"></path>
                            </g>
                            <g transform="translate(953.919692, 3.967152)" id="Shape">
                                <polygon points="0.622302958 54.0399734 0.622302958 0.592191388 11.5025676 0.592191388 11.5025676 44.9563598 38.552672 44.9563598 38.552672 54.0399734"></polygon>
                            </g>
                            <g transform="translate(997.079413, 3.967152)" id="Shape">
                                <path d="M54.1905431,54.0399734 L42.3567497,54.0399734 L37.649329,41.79466 L16.1096169,41.79466 L11.6631619,54.0399734 L0.120445734,54.0399734 L21.1081149,0.150557132 L32.6106824,0.150557132 L54.1905431,54.0399734 Z M34.1564027,32.7210835 L26.7389529,12.7170591 L19.4620232,32.7210835 L34.1564027,32.7210835 Z"></path>
                            </g>
                            <g transform="translate(1059.309709, 3.967152)" id="Shape">
                                <path d="M0.220817179,0.150557132 L21.7605293,0.150557132 C26.0162785,0.150557132 29.1980533,0.331225691 31.2958165,0.682525667 C33.3935797,1.03382564 35.2604886,1.77657416 36.9166174,2.90073409 C38.5727463,4.03493115 39.9478351,5.53046533 41.051921,7.40741092 C42.1560069,9.2843565 42.7080498,11.3821192 42.7080498,13.7107362 C42.7080498,16.240096 42.025524,18.5486387 40.6705095,20.6564386 C39.3054578,22.7642384 37.4686604,24.3501069 35.1400429,25.4040068 C38.4221891,26.3575353 40.9415124,27.9835524 42.7080498,30.2920951 C44.4745872,32.5906006 45.3578559,35.300629 45.3578559,38.4121431 C45.3578559,40.8612058 44.7857387,43.2500456 43.6415042,45.5585883 C42.5073069,47.8771681 40.9515495,49.7340394 38.9742321,51.1091279 C37.0069517,52.4942535 34.5679256,53.3474106 31.677228,53.6685992 C29.870542,53.8593049 25.494347,53.9897877 18.5586802,54.0399734 L0.220817179,54.0399734 L0.220817179,0.150557132 Z M11.0910447,9.11372509 L11.0910447,21.5798557 L18.2274544,21.5798557 C22.4631294,21.5798557 25.1028984,21.5196328 26.1266871,21.3991871 C27.993596,21.17837 29.4590191,20.5259557 30.5229564,19.4620187 C31.5868937,18.3980816 32.1188624,16.9928817 32.1188624,15.2564561 C32.1188624,13.5902905 31.6671909,12.2352763 30.7437736,11.1914135 C29.8203563,10.1575879 28.4553046,9.52524792 26.6486186,9.30443079 C25.564607,9.17394794 22.4631294,9.11372509 17.3441857,9.11372509 L11.0910447,9.11372509 Z M11.0910447,30.5430236 L11.0910447,44.9563598 L21.1683377,44.9563598 C25.0928612,44.9563598 27.5720359,44.8459512 28.6259361,44.6251341 C30.2519535,44.3340569 31.5668194,43.6113827 32.580571,42.4771856 C33.5943226,41.3329514 34.106217,39.8073058 34.106217,37.9002488 C34.106217,36.2842689 33.7147683,34.9091805 32.9318711,33.7850205 C32.1489738,32.6508235 31.0147765,31.8378149 29.5292791,31.3158836 C28.0437817,30.8039893 24.8318955,30.5430236 19.8835832,30.5430236 L11.0910447,30.5430236 Z"></path>
                            </g>
                            <g transform="translate(1113.510289, 2.963438)" id="Shape">
                                <path d="M0.58215438,28.4251866 C0.58215438,22.9348698 1.40520023,18.3278216 3.04125478,14.6040419 C4.27582355,11.863902 5.94198954,9.39476507 8.05982702,7.21670522 C10.1877017,5.03864537 12.506282,3.42266548 15.0256053,2.36876555 C18.3880487,0.943491364 22.2623865,0.23085427 26.6486186,0.23085427 C34.5879999,0.23085427 40.9314752,2.69999124 45.6991189,7.6181909 C50.4667625,12.5464277 52.8556029,19.4017958 52.8556029,28.1742581 C52.8556029,36.8664232 50.4868368,43.6716056 45.7593417,48.5898052 C41.0318467,53.4979677 34.7084456,55.9570676 26.7891386,55.9570676 C18.7794973,55.9570676 12.4059106,53.518042 7.67841553,48.6199167 C2.95092048,43.7318284 0.58215438,37.0069432 0.58215438,28.4251866 Z M11.7936448,28.0538124 C11.7936448,34.1664319 13.2088821,38.7835173 16.0192826,41.93518 C18.8397202,45.0868426 22.4129436,46.6626739 26.7590272,46.6626739 C31.0950736,46.6626739 34.6482228,45.0968798 37.4285118,41.9753285 C40.218838,38.8437402 41.6039639,34.1664319 41.6039639,27.9132924 C41.6039639,21.7404499 40.2489494,17.1334017 37.5389204,14.0921476 C34.8389285,11.0508935 31.2355936,9.53528506 26.7590272,9.53528506 C22.2724236,9.53528506 18.6590516,11.0709678 15.908874,14.1423333 C13.1687336,17.223736 11.7936448,21.8608956 11.7936448,28.0538124 Z"></path>
                            </g>
                            <g transform="translate(1176.744299, 3.967152)" id="Shape">
                                <path d="M0.592191525,54.0399734 L0.592191525,0.150557132 L23.4969552,0.150557132 C29.248239,0.150557132 33.4337283,0.632339956 36.0433859,1.60594275 C38.6530434,2.56950839 40.7407695,4.29589685 42.3166012,6.76503382 C43.8823957,9.24420793 44.665293,12.074682 44.665293,15.2564561 C44.665293,19.3014244 43.4809099,22.6437927 41.1021067,25.273524 C38.7233034,27.9032552 35.1701543,29.5694208 30.4426592,30.2519465 C32.791351,31.627035 34.7385571,33.1326063 36.264203,34.7786976 C37.7998861,36.4147518 39.8575008,39.3355601 42.4571212,43.5210484 L49.041488,54.0399734 L36.0233116,54.0399734 L28.1642274,42.3065542 C25.3638641,38.1210659 23.4568067,35.4812976 22.4229808,34.3872491 C21.3991921,33.2932006 20.3051433,32.550452 19.1508717,32.1489664 C18.0066372,31.7374435 16.1798769,31.5367007 13.6806279,31.5367007 L11.4724562,31.5367007 L11.4724562,54.0399734 L0.592191525,54.0399734 Z M11.4724562,22.9348698 L19.522246,22.9348698 C24.7415612,22.9348698 28.0036331,22.7140527 29.2984248,22.2724185 C30.6032535,21.8408214 31.6170051,21.0779985 32.3497167,19.9939872 C33.0824282,18.920013 33.4538026,17.5750359 33.4538026,15.959056 C33.4538026,14.1423333 32.9720196,12.6769106 31.9984166,11.5627878 C31.0348508,10.448665 29.6697991,9.74606504 27.9032617,9.44495078 C27.019993,9.32450507 24.3701868,9.26428222 19.9638804,9.26428222 L11.4724562,9.26428222 L11.4724562,22.9348698 Z"></path>
                            </g>
                            <g transform="translate(1227.933736, 3.967152)" id="Shape">
                                <path d="M54.7726975,54.0399734 L42.9389041,54.0399734 L38.2314834,41.79466 L16.6917713,41.79466 L12.2453163,54.0399734 L0.702600114,54.0399734 L21.6902692,0.150557132 L33.1928368,0.150557132 L54.7726975,54.0399734 Z M34.7385571,32.7210835 L27.3110702,12.7170591 L20.0341404,32.7210835 L34.7385571,32.7210835 Z"></path>
                            </g>
                            <g transform="translate(1281.130602, 3.967152)" id="Shape">
                                <polygon points="16.3304341 54.0399734 16.3304341 9.26428222 0.341262913 9.26428222 0.341262913 0.150557132 43.1697584 0.150557132 43.1697584 9.26428222 27.2106987 9.26428222 27.2106987 54.0399734"></polygon>
                            </g>
                            <g transform="translate(1329.308896, 2.963438)" id="Shape">
                                <path d="M0.89330586,28.4251866 C0.89330586,22.9348698 1.70631456,18.3278216 3.35240626,14.6040419 C4.57693789,11.863902 6.25314102,9.39476507 8.3709785,7.21670522 C10.488816,5.03864537 12.8073964,3.42266548 15.3367568,2.36876555 C18.689163,0.943491364 22.5635008,0.23085427 26.949733,0.23085427 C34.8891142,0.23085427 41.2426267,2.69999124 46.0102703,7.6181909 C50.777914,12.5464277 53.1567172,19.4017958 53.1567172,28.1742581 C53.1567172,36.8664232 50.7979883,43.6716056 46.0604561,48.5898052 C41.332961,53.4979677 35.00956,55.9570676 27.1002901,55.9570676 C19.0806117,55.9570676 12.7070249,53.518042 7.97952987,48.6199167 C3.25203481,43.7318284 0.89330586,37.0069432 0.89330586,28.4251866 Z M12.0947591,28.0538124 C12.0947591,34.1664319 13.5099965,38.7835173 16.3304341,41.93518 C19.1408345,45.0868426 22.7240951,46.6626739 27.0601415,46.6626739 C31.396188,46.6626739 34.9593743,45.0968798 37.7396633,41.9753285 C40.5199523,38.8437402 41.9151154,34.1664319 41.9151154,27.9132924 C41.9151154,21.7404499 40.5601009,17.1334017 37.8500719,14.0921476 C35.1400429,11.0508935 31.5467451,9.53528506 27.0601415,9.53528506 C22.573538,9.53528506 18.9601659,11.0709678 16.2200255,14.1423333 C13.4698479,17.223736 12.0947591,21.8608956 12.0947591,28.0538124 Z"></path>
                            </g>
                            <g transform="translate(1392.542906, 3.967152)" id="Shape">
                                <path d="M0.89330586,54.0399734 L0.89330586,0.150557132 L23.7980696,0.150557132 C29.5593905,0.150557132 33.7448798,0.632339956 36.3545373,1.60594275 C38.9641949,2.56950839 41.051921,4.29589685 42.6177155,6.76503382 C44.18351,9.24420793 44.9664073,12.074682 44.9664073,15.2564561 C44.9664073,19.3014244 43.7820243,22.6437927 41.403221,25.273524 C39.0244178,27.9032552 35.4712686,29.5694208 30.7437736,30.2519465 C33.0924654,31.627035 35.0396714,33.1326063 36.5653174,34.7786976 C38.1010005,36.4147518 40.1686522,39.3355601 42.7682727,43.5210484 L49.3426023,54.0399734 L36.334463,54.0399734 L28.4653418,42.3065542 C25.6750156,38.1210659 23.757921,35.4812976 22.7341323,34.3872491 C21.7003064,33.2932006 20.6162948,32.550452 19.4620232,32.1489664 C18.3077515,31.7374435 16.4809913,31.5367007 13.9817423,31.5367007 L11.7735705,31.5367007 L11.7735705,54.0399734 L0.89330586,54.0399734 Z M11.7735705,22.9348698 L19.8233604,22.9348698 C25.0426755,22.9348698 28.3047475,22.7140527 29.6095762,22.2724185 C30.9043679,21.8408214 31.9181195,21.0779985 32.650831,19.9939872 C33.3935797,18.920013 33.7549169,17.5750359 33.7549169,15.959056 C33.7549169,14.1423333 33.273134,12.6769106 32.3095681,11.5627878 C31.3359651,10.448665 29.9709134,9.74606504 28.204376,9.44495078 C27.3211073,9.32450507 24.6813383,9.26428222 20.2649947,9.26428222 L11.7735705,9.26428222 L11.7735705,22.9348698 Z"></path>
                            </g>
                            <g transform="translate(1441.724914, 3.967152)" id="Shape">
                                <polygon points="19.8434347 54.0399734 19.8434347 31.3560321 0.110408589 0.150557132 12.8676192 0.150557132 25.5445327 21.4694471 37.9705176 0.150557132 50.5069111 0.150557132 30.6935878 31.4262921 30.6935878 54.0399734"></polygon>
                            </g>
                        </g>
                    </g>
                </g>
                <g id="Simbolo" transform="translate(170.000000, 0.000000)">
                    <g id="Group">
                        <g transform="translate(272.918667, 0.855418)" id="Shape" fill="#223E7D">
                            <path d="M53.6877668,450.859889 C53.6877668,450.859889 82.2755636,320.762405 224.936996,233.04376 C367.505911,145.325115 545.231341,184.187806 545.231341,184.187806 C545.231341,184.187806 499.250321,119.324124 404.605285,79.7211916 C357.051474,59.8271951 307.554804,44.1895885 235.391433,46.0401929 C234.651296,46.0401929 248.713901,32.5307813 282.11259,21.6122158 C315.973863,10.60112 357.421543,12.3591941 357.421543,12.3591941 C357.421543,12.3591941 312.365695,-14.2895082 216.147868,12.3591941 C173.589982,24.2030618 130.569512,44.0970583 82.0905293,92.3978313 C35.6469242,138.662939 -7.74361528,216.480851 1.23054746,310.676612 C5.39381884,354.165813 15.4781873,409.591413 53.6877668,450.859889 Z"></path>
                        </g>
                        <g transform="translate(594.351042, 29.936383)" id="Shape" fill="#223E7D">
                            <path d="M0.462585708,1.96933287 C0.462585708,1.96933287 208.626154,-18.6649054 320.479379,102.642208 C432.42512,224.041852 403.374738,394.852632 403.374738,394.852632 C403.374738,394.852632 391.254992,337.483897 361.001887,279.652512 C334.819536,229.593665 291.799065,182.125664 261.083374,151.775753 C231.385371,122.351144 177.077809,76.8262779 125.91583,49.4373339 C62.9116563,15.7563351 0.462585708,1.96933287 0.462585708,1.96933287 Z"></path>
                        </g>
                        <g transform="translate(396.875579, 561.128676) rotate(240.370847) translate(-396.875579, -561.128676) translate(123.875579, 335.628676)" id="Shape" fill="#5399BD">
                            <path d="M53.6826308,450.845684 C53.6826308,450.845684 82.2704183,320.748242 224.931804,233.029626 C367.500673,145.311009 545.226044,184.173687 545.226044,184.173687 C545.226044,184.173687 499.24504,119.310027 404.600035,79.7071072 C357.046239,59.8131172 307.549585,44.1755157 235.386238,46.0261194 C234.646101,46.0261194 248.708702,32.5167122 282.107379,21.5981503 C315.968642,10.5870581 357.416308,12.3451317 357.416308,12.3451317 C357.416308,12.3451317 312.360474,-14.3035619 216.142679,12.3451317 C173.584807,24.1889955 130.56435,44.0829855 82.085384,92.3837427 C35.6417941,138.648836 -7.74873119,216.466722 1.22542862,310.662452 C5.38869864,354.151639 15.4730638,409.577221 53.6826308,450.845684 Z"></path>
                        </g>
                        <g transform="translate(273.248517, 341.573726) rotate(240.370847) translate(-273.248517, -341.573726) translate(69.748517, 144.073726)" id="Shape" fill="#5399BD">
                            <path d="M0.450515191,1.96912295 C0.450515191,1.96912295 208.614016,-18.6651086 320.467204,102.641965 C432.412909,224.04157 403.362536,394.852293 403.362536,394.852293 C403.362536,394.852293 391.242794,337.483578 360.989699,279.652212 C334.807356,229.593381 291.786899,182.125395 261.071218,151.775494 C231.373225,122.350895 177.065681,76.8260435 125.903718,49.4371084 C62.8995654,15.7561207 0.450515191,1.96912295 0.450515191,1.96912295 Z"></path>
                        </g>
                        <g transform="translate(770.671288, 543.547422) rotate(124.108339) translate(-770.671288, -543.547422) translate(496.671288, 316.047422)" id="Shape" fill="#017598">
                            <path d="M53.9562791,454.147214 C53.9562791,454.147214 82.6820718,323.113513 226.032144,234.76362 C369.289253,146.413727 547.87258,185.556085 547.87258,185.556085 C547.87258,185.556085 501.669605,120.225626 406.567709,80.3376995 C358.784352,60.3005402 309.048756,44.5504011 236.537046,46.4143229 C235.793336,46.4143229 249.923823,32.8076939 283.48373,21.8105553 C317.508455,10.7202206 359.156207,12.4909463 359.156207,12.4909463 C359.156207,12.4909463 313.88287,-14.3495274 217.20059,12.4909463 C174.437274,24.4200458 131.209139,44.457205 82.4961444,93.1055637 C35.8283516,139.703608 -7.77163802,218.08152 1.24584384,312.955139 C5.42921172,356.757301 15.5622584,412.581758 53.9562791,454.147214 Z"></path>
                        </g>
                        <g transform="translate(627.878003, 753.031837) rotate(124.108339) translate(-627.878003, -753.031837) translate(423.378003, 554.031837)" id="Shape" fill="#017598">
                            <path d="M0.461226352,2.04054592 C0.461226352,2.04054592 209.62962,-18.742182 322.02277,103.437891 C434.508884,225.711161 405.318273,397.751142 405.318273,397.751142 C405.318273,397.751142 393.140024,339.969566 362.740884,281.72201 C336.432149,231.302926 293.204014,183.493332 262.340055,152.925015 C232.498698,123.288658 177.928988,77.4361823 126.520045,49.8501398 C63.2117445,15.9267632 0.461226352,2.04054592 0.461226352,2.04054592 Z"></path>
                        </g>
                    </g>
                </g>
                <g id="Tipografia" transform="translate(0.000000, 1080.000000)">
                    <g id="Group">
                        <path d="M1170.06,5.92 L1170.06,309.16 L1382.55,309.16 C1455.78,309.3 1498.06,290.13 1495.88,224.79 C1495.26,172.04 1460.85,156.28 1419.94,153.51 C1454.26,145.84 1479.81,123.15 1478.58,84.33 C1476.87,30.12 1437.39,7.47 1382.55,5.92 L1170.06,5.92 Z M1294.4,183.7 L1294.4,236.89 L1336.51,236.89 C1357.76,236.71 1367.6,227.53 1366.03,209.34 C1367.27,192.62 1356.76,184.56 1336.51,183.7 L1294.4,183.7 Z M1293.74,77.22 L1293.74,129.46 L1327.85,129.46 C1345.06,129.29 1353.03,120.27 1351.76,102.4 C1352.75,85.98 1344.24,78.07 1327.85,77.22 L1293.74,77.22 Z" id="Shape" fill="#203E7C"></path>
                        <g transform="translate(587.703840, 3.210480)" id="Shape" fill="#509BBA">
                            <path d="M5.99097,2.91388 C5.5716021,2.6807696 9.6454617,305.899122 9.6454617,305.899122 L202.554696,305.899122 L246.348686,211.139745 L143.963009,211.139745 L143.963009,2.91388 C143.963009,2.91388 111.012674,2.9721576 77.3434227,3.0304352 C42.1764288,3.0304352 6.2306088,3.0304352 5.99097,2.91388 Z"></path>
                        </g>
                        <path d="M930.16,6.59 L1087.43,6.59 L1170.41,200.92 L1170.41,309.13 L1076.21,309.13 L1059.99,272.88 L954.71,272.88 L939.7,309.13 L789.38,309.13 L930.16,6.59 Z M977.68,200.92 L1036.11,200.92 L1010.42,100.05 L999.85,100.05 L977.68,200.92 Z" id="Shape" fill="#01778D"></path>
                        <path d="M289.45,6.41 L289.45,309.07 L426.82,309.07 L426.82,218.75 L505.74,218.75 C542.98,217.52 573.65,208.84 596.37,191.15 L596.37,47.37 C573.15,21.97 544.07,7.62 505.74,6.41 L396.33,6.41 L289.45,6.41 Z M426.55,93.57 L426.55,149.83 L476.53,149.83 C494.79,149.64 499.79,141.13 500.06,120.57 C501.26,102.34 496.24,94.34 476.53,93.57 L426.55,93.57 Z" id="Shape" fill="#203F80"></path>
                        <g transform="translate(0.597810, 0.391310)" id="Shape" fill="#203F80">
                            <path d="M289.303941,70.8132654 L267.67654,101.427122 C267.67654,101.427122 237.062683,86.3897874 210.103318,78.481707 C173.438581,67.6380513 155.465671,79.9195398 151.271992,88.6064463 C148.276507,94.7172357 146.898584,109.574841 161.456641,116.524366 C179.66919,125.271183 226.458666,123.653621 251.56083,130.303597 C281.935048,138.331497 289.303941,153.72829 289.303941,153.72829 L289.303941,270.013018 C289.303941,270.013018 246.049138,301.944888 191.531311,307.336761 C168.466076,309.55342 131.441882,309.733149 108.436557,307.336761 C64.4029275,302.663804 5.3319633,281.994958 5.3319633,281.994958 L5.3319633,192.310137 C5.3319633,192.310137 66.9790446,221.845619 92.6203962,228.495596 C99.5699214,230.292887 142.465267,235.145572 161.456641,228.495596 C172.899394,224.481646 177.212893,209.803769 169.604361,201.116863 C157.74224,187.457451 145.281022,194.766435 85.3114128,182.185398 C52.720536,175.355692 23.7242412,164.092668 13.3598631,145.520661 C4.9125954,130.423417 0.599097,98.6712759 13.3598631,70.8132654 C27.0791844,40.738596 71.4722721,22.8855054 80.1591786,18.9913749 C108.077099,6.5301573 190.273207,1.198194 232.629365,10.5441072 C244.311757,13.1202243 289.303941,27.4985523 289.303941,27.4985523 C289.303941,27.4985523 287.746289,70.9330848 289.303941,70.8132654 Z"></path>
                        </g>
                    </g>
                </g>
            </g>
        </g>
    </g>
</svg>