<?xml version="1.0" encoding="utf-8"?>
<!-- Generator: Adobe Illustrator 21.0.2, SVG Export Plug-In . SVG Version: 6.00 Build 0)  -->
<svg version="1.1" id="Capa_1" xmlns="http://www.w3.org/2000/svg" xmlns:xlink="http://www.w3.org/1999/xlink" x="0px" y="0px"
	 viewBox="0 0 49.7 49.7" style="enable-background:new 0 0 49.7 49.7;" xml:space="preserve">
<style type="text/css">
	.st0{fill:#CCCCCC;}
</style>
<path class="st0" d="M44.4,14.8c0,0.4,0,0.9,0,1.2c0,13.4-10.1,28.8-28.8,28.8c-5.7,0-11-1.6-15.6-4.6c0.7,0.2,1.6,0.2,2.5,0.2
	c4.8,0,9-1.6,12.6-4.2c-4.4,0-8.1-3-9.4-7.1c0.5,0.2,1.2,0.2,1.9,0.2c0.9,0,1.8-0.2,2.7-0.4C5.7,28,2.1,24,2.1,19c0,0,0,0,0-0.2
	c1.4,0.7,3,1.2,4.6,1.2c-2.7-1.8-4.4-5-4.4-8.5c0-1.8,0.5-3.5,1.4-5.1c5,6.2,12.4,10.1,20.9,10.6c-0.2-0.7-0.2-1.6-0.2-2.3
	c0-5.7,4.6-10.1,10.1-10.1c2.8,0,5.5,1.2,7.4,3.2c2.3-0.5,4.4-1.2,6.4-2.5C47.6,7.7,46,9.8,43.9,11c2.1-0.2,4.1-0.7,5.8-1.6
	C48.1,11.6,46.3,13.3,44.4,14.8z"/>
</svg>
