<?xml version="1.0" encoding="utf-8"?>
<!-- Generator: Adobe Illustrator 19.1.0, SVG Export Plug-In . SVG Version: 6.00 Build 0)  -->
<svg version="1.1" id="Layer_1" xmlns="http://www.w3.org/2000/svg" xmlns:xlink="http://www.w3.org/1999/xlink" x="0px" y="0px"
	 viewBox="-157 249.7 295.3 295.3" style="enable-background:new -157 249.7 295.3 295.3;" xml:space="preserve">
<style type="text/css">
	.st0{fill:#7F7F7F;}
</style>
<g>
	<g>
		<path class="st0" d="M62.1,364v-10.4c5.5-2,9.5-7.2,9.5-13.4c0-5.8-3.5-10.8-8.5-13l9-35.8L38.3,252L4.5,291.4l9,35.8
			c-5,2.2-8.5,7.2-8.5,13c0,6.2,4,11.4,9.5,13.4V364h-47.6v-72.7L-57,249.7l-23.8,41.7V364H-157v66.7h76.2v90.5
			c0,13.1,10.7,23.8,23.8,23.8s23.8-10.7,23.8-23.8v-90.5h47.6v90.5c0,13.1,10.7,23.8,23.8,23.8s23.8-10.7,23.8-23.8v-14.3h4.8
			c7.9,0,14.3-6.4,14.3-14.3v-27.9l-2.4-1.4c-1.5-0.9-2.4-2.4-2.4-4.1c0-1.7,0.9-3.2,2.4-4.1l2.4-1.4v-13.6h-9.5v8.5
			c-3,2.7-4.8,6.5-4.8,10.6s1.8,7.9,4.8,10.6v22.7c0,2.6-2.1,4.8-4.8,4.8h-4.8v-66.7h76.2V364L62.1,364L62.1,364z M-80.8,421.2
			h-66.7v-47.6h9.5v14.3h9.5v-14.3h9.5v19h9.5v-19h9.5v14.3h9.5v-14.3h9.5C-80.8,373.6-80.8,421.2-80.8,421.2z M-57,268.9l10.8,19
			h-21.7L-57,268.9z M-71.2,297.4h9.5v185.7h-9.5V297.4z M-42.7,521.2c0,7.9-6.4,14.3-14.3,14.3s-14.3-6.4-14.3-14.3v-9.5h28.6
			V521.2z M-42.7,502.1h-28.6v-9.5h28.6V502.1z M-42.7,483.1h-9.5V297.4h9.5L-42.7,483.1L-42.7,483.1z M38.3,292.6
			c2.6,0,4.8,2.1,4.8,4.8c0,2.6-2.1,4.8-4.8,4.8s-4.8-2.1-4.8-4.8C33.5,294.8,35.6,292.6,38.3,292.6z M33.5,272.2V284
			c-5.5,2-9.5,7.2-9.5,13.4c0,7.9,6.4,14.3,14.3,14.3c7.9,0,14.3-6.4,14.3-14.3c0-6.2-4-11.4-9.5-13.4v-11.8l18.6,21.7l-8,32.1H22.9
			l-8-32.1L33.5,272.2z M14.5,421.2h-47.6v-47.6h9.5v14.3h9.5v-14.3h9.5v19h9.5v-19h9.5L14.5,421.2L14.5,421.2z M38.3,535.5
			c-7.9,0-14.3-6.4-14.3-14.3v-14.3h28.6v14.3h0C52.6,529.1,46.2,535.5,38.3,535.5z M52.6,368.8v19v90.5H24V354.5h28.6L52.6,368.8
			L52.6,368.8z M52.6,487.9v9.5H24v-9.5H52.6z M57.3,345H19.2c-2.6,0-4.8-2.1-4.8-4.8s2.1-4.8,4.8-4.8h38.1c2.6,0,4.8,2.1,4.8,4.8
			S60,345,57.3,345z M128.8,421.2L128.8,421.2H62.1v-33.3v-14.3h9.5v19h9.5v-19h9.5v14.3h9.5v-14.3h9.5v19h9.5v-19h9.5L128.8,421.2
			L128.8,421.2z"/>
	</g>
</g>
</svg>
