<?xml version="1.0" encoding="utf-8"?>
<!-- Generator: Adobe Illustrator 19.1.0, SVG Export Plug-In . SVG Version: 6.00 Build 0)  -->
<svg version="1.1" id="Layer_1" xmlns="http://www.w3.org/2000/svg" xmlns:xlink="http://www.w3.org/1999/xlink" x="0px" y="0px"
	 viewBox="-162 -285.7 285.7 285.7" style="enable-background:new -162 -285.7 285.7 285.7;" xml:space="preserve">
<style type="text/css">
	.st0{fill:#7F7F7F;}
</style>
<g>
	<g>
		<g>
			<path class="st0" d="M23.7-228.6c0-23.6-19.2-42.9-42.9-42.9S-62-252.2-62-228.6c0,14.3,7.2,27.7,19,35.6v7.5
				c-5.4,1.1-9.5,5.9-9.5,11.7c0,4.2,2.2,7.9,5.6,10c-0.5,1.3-0.8,2.7-0.8,4.2c0,6.6,5.3,11.9,11.9,11.9h33.3
				c6.6,0,11.9-5.3,11.9-11.9c0-1.5-0.3-2.9-0.8-4.2c3.3-2.1,5.6-5.8,5.6-10c0-5.8-4.1-10.6-9.5-11.7v-7.5
				C16.5-200.9,23.7-214.3,23.7-228.6z M-2.5-157.1h-33.3c-1.3,0-2.4-1.1-2.4-2.4s1.1-2.4,2.4-2.4h33.3c1.3,0,2.4,1.1,2.4,2.4
				S-1.2-157.1-2.5-157.1z M2.3-171.4h-4.8h-33.3h-4.8c-1.3,0-2.4-1.1-2.4-2.4s1.1-2.4,2.4-2.4H2.3c1.3,0,2.4,1.1,2.4,2.4
				S3.6-171.4,2.3-171.4z M-23.9-228.6c0-2.6,2.1-4.8,4.8-4.8s4.8,2.1,4.8,4.8s-2.1,4.8-4.8,4.8C-21.8-223.8-23.9-225.9-23.9-228.6z
				 M-2.5-199.7l-2.4,1.4v12.6h-9.5v-29.4c5.5-2,9.5-7.2,9.5-13.4c0-7.9-6.4-14.3-14.3-14.3s-14.3,6.4-14.3,14.3
				c0,6.2,4,11.4,9.5,13.4v29.4h-9.5v-12.6l-2.4-1.4c-10.3-6-16.7-17-16.7-28.8c0-18.4,15-33.3,33.3-33.3s33.3,15,33.3,33.3
				C14.2-216.7,7.8-205.7-2.5-199.7z"/>
			<path class="st0" d="M21-62.4c-2.2-5.5-7.4-9-13.3-9h-3v-54.8c0-9.2-7.5-16.7-16.7-16.7c-9.2,0-16.7,7.5-16.7,16.7v22.6
				c-1.7-0.7-3.5-1.2-5.4-1.2h-4.5c-7.7,0-13.9,6.2-13.9,13.9v0.4h-5.1c-7.7,0-13.9,6.2-13.9,13.9v0.4h-0.4
				c-7.7,0-13.9,6.2-13.9,13.9v0.4v1v9.6c0,6.6,1.3,12.9,3.9,18.9l7.2,16.7c2.1,4.8,3.1,9.9,3.1,15.1V0h9.5v-0.6
				c0-6.6-1.3-12.9-3.9-18.9l-7.2-16.7c-1.2-2.9-2.1-5.8-2.6-8.8l17.9,17.9c2.8,2.8,6.4,4.2,10.1,4.2s7.3-1.4,10.1-4.2l0.8-0.8
				c2.3-2.3,3.6-5.1,4-8c0.2,0,0.4,0.1,0.6,0.1c2.6,0,5.1-0.7,7.4-2.1l0.3-0.2c0.7-0.5,1.3-1,1.9-1.5c2.1,1.9,4.8,3.4,7.7,4.1
				l6.4,1.6l3.9,11.8l9-3l-5.6-16.8L-12.6-45c-3.8-1-6.5-4.4-6.5-8.3c0-4.7,3.9-8.6,8.6-8.6h5.7h9.5h3c1.9,0,3.7,1.2,4.4,3L18-44.1
				c0.7,1.7,1,3.4,1,5.2v1c0,2.2-0.5,4.4-1.5,6.4l-5.5,11c-1.6,3.3-2.5,7-2.5,10.6V0H19v-9.8c0-2.2,0.5-4.4,1.5-6.4l5.5-11
				c1.6-3.3,2.5-7,2.5-10.6v-1c0-3-0.6-5.9-1.7-8.7L21-62.4z M-43.5-34.7l-0.8,0.8c-1.9,1.9-4.9,1.9-6.7,0L-75-57.8
				c-0.8-0.8-1.3-1.9-1.3-3.1v-1v-0.4c0-2.4,2-4.4,4.4-4.4h1.3c1.2,0,2.3,0.5,3.1,1.3l23.9,23.9C-41.7-39.6-41.7-36.6-43.5-34.7z
				 M-28.1-48.7c-0.2,0.8-0.7,1.7-1.7,2.4l-0.1,0.1c-1.7,1.2-4.1,0.9-5.5-0.5l-1.4-1.4l-23.9-23.9c-0.8-0.8-1.3-1.9-1.3-3.1v-1.3
				c0-2.4,2-4.4,4.4-4.4h5.3c1.4,0,2.7,0.7,3.5,1.7l11,14.7l9,12c0,0,0.1,0.1,0.1,0.1c0,0,0,0,0,0l0,0.1
				C-28.5-51.1-28.3-49.9-28.1-48.7C-28-48.8-28-48.7-28.1-48.7z M-19.1-70c0,1.3-4.2,3.4-6.1,8.1c0,0,0,0,0,0l-10.2-14.5l-5.6-8
				l-0.9-1.6c-0.6-0.8-0.9-1.8-0.9-2.8v-2.1c0-2.4,2-4.4,4.4-4.4h4.5c1.6,0,2.2,0.9,3,2.3L-19.1-70C-19.1-70-19.1-70-19.1-70z
				 M-4.9-71.4h-2.5l-11.8-21.2v-33.5c0-3.9,3.2-7.1,7.1-7.1s7.1,3.2,7.1,7.1V-71.4z"/>
			<rect x="-23.9" y="-285.7" class="st0" width="9.5" height="9.5"/>
			
				<rect x="-50.1" y="-278.7" transform="matrix(-0.4999 -0.8661 0.8661 -0.4999 169.2553 -450.1323)" class="st0" width="9.5" height="9.5"/>
			
				<rect x="-69.3" y="-259.5" transform="matrix(-0.8661 -0.4999 0.4999 -0.8661 6.9745 -507.6537)" class="st0" width="9.5" height="9.5"/>
			<rect x="-76.3" y="-233.3" class="st0" width="9.5" height="9.5"/>
			
				<rect x="-69.3" y="-207.1" transform="matrix(0.4999 0.8661 -0.8661 0.4999 -207.5383 -45.3392)" class="st0" width="9.5" height="9.5"/>
			
				<rect x="21.5" y="-207.1" transform="matrix(0.8661 0.4999 -0.4999 0.8661 -97.6611 -40.2062)" class="st0" width="9.5" height="9.5"/>
			<rect x="28.5" y="-233.3" class="st0" width="9.5" height="9.5"/>
			
				<rect x="21.5" y="-259.5" transform="matrix(-0.4999 -0.8661 0.8661 -0.4999 259.9694 -359.3904)" class="st0" width="9.5" height="9.5"/>
			
				<rect x="2.3" y="-278.7" transform="matrix(-0.8661 -0.4999 0.4999 -0.8661 150.0816 -507.6704)" class="st0" width="9.5" height="9.5"/>
			<polygon class="st0" points="114.2,-228.6 114.2,-238.1 104.7,-238.1 104.7,-228.6 95.1,-228.6 95.1,-219 104.7,-219 
				104.7,-209.5 114.2,-209.5 114.2,-219 123.7,-219 123.7,-228.6 			"/>
			<polygon class="st0" points="66.6,-257.1 76.1,-257.1 76.1,-266.7 85.6,-266.7 85.6,-276.2 76.1,-276.2 76.1,-285.7 66.6,-285.7 
				66.6,-276.2 57,-276.2 57,-266.7 66.6,-266.7 			"/>
			<polygon class="st0" points="-143,-209.5 -152.5,-209.5 -152.5,-200 -162,-200 -162,-190.5 -152.5,-190.5 -152.5,-181 -143,-181 
				-143,-190.5 -133.4,-190.5 -133.4,-200 -143,-200 			"/>
			<polygon class="st0" points="-100.1,-247.6 -109.6,-247.6 -109.6,-257.1 -119.1,-257.1 -119.1,-247.6 -128.7,-247.6 
				-128.7,-238.1 -119.1,-238.1 -119.1,-228.6 -109.6,-228.6 -109.6,-238.1 -100.1,-238.1 			"/>
			<polygon class="st0" points="-85.8,-133.3 -85.8,-142.9 -76.3,-142.9 -76.3,-152.4 -85.8,-152.4 -85.8,-161.9 -95.3,-161.9 
				-95.3,-152.4 -104.9,-152.4 -104.9,-142.9 -95.3,-142.9 -95.3,-133.3 			"/>
			<polygon class="st0" points="80.9,-185.7 71.3,-185.7 71.3,-176.2 61.8,-176.2 61.8,-166.7 71.3,-166.7 71.3,-157.1 80.9,-157.1 
				80.9,-166.7 90.4,-166.7 90.4,-176.2 80.9,-176.2 			"/>
		</g>
	</g>
</g>
</svg>
