<?xml version="1.0" encoding="utf-8"?>
<!-- Generator: Adobe Illustrator 19.1.0, SVG Export Plug-In . SVG Version: 6.00 Build 0)  -->
<svg version="1.1" id="Layer_1" xmlns="http://www.w3.org/2000/svg" xmlns:xlink="http://www.w3.org/1999/xlink" x="0px" y="0px"
	 viewBox="-157 -295.2 295.2 295.2" style="enable-background:new -157 -295.2 295.2 295.2;" xml:space="preserve">
<style type="text/css">
	.st0{fill:#7F7F7F;}
</style>
<g>
	<g>
		<g>
			<path class="st0" d="M120.5-295.1l-27.7,20.7l-27.8,64.9H42.6l-8.8-19h5.7c10.5,0,19-8.5,19-19v-19.1h9.5v-28.6H39.5v28.6H49
				v19.1c0,5.2-4.3,9.4-9.5,9.4H29.4l-12.2-26.3l14.6-7.3L-16-292.1l-11.2,39.3c-0.3-23.4-19.4-42.3-42.8-42.3
				c-23.6,0-42.9,19.2-42.9,42.9c0,14.3,7.2,27.7,19,35.6v7.2h-11.5l-0.7,3.9c-2.3,12-2.5,24.3-0.6,36.6l-32.5,57.9l35.9,8.2v60
				h47.6V0H58.6v-66.4c33.3-23.6,52.4-61.5,52.3-101.9l0-17.4c0-6.5-0.6-13.3-1.8-19.9l-0.7-3.9H99l21.4-51.3L120.5-295.1
				L120.5-295.1z M49-276.1v-9.5h9.5v9.5H49z M32.1-209.5H14l-8.7-19h17.9L32.1-209.5z M-9.8-279.1L9.1-271l-4.5,2.2l14.2,30.7H1
				l-11.6-25.5l-4.3,2.2L-9.8-279.1z M3.5-209.5h-21.2v-9.4c0-5.3,4.3-9.6,9.5-9.6h3v0L3.5-209.5z M-15.2-250.6l5.8,12.7
				c-9.9,0.7-17.8,8.8-17.8,18.9v9.4h-19v-7.2c9.5-6.4,16-16.4,18.2-27.5L-15.2-250.6z M-103.3-252.3c0-18.4,15-33.3,33.3-33.3
				s33.3,15,33.3,33.3c0,11.8-6.4,22.9-16.7,28.8l-2.4,1.4v12.6h-9.5v-29.4c5.5-2,9.5-7.2,9.5-13.4c0-7.9-6.4-14.3-14.3-14.3
				s-14.3,6.4-14.3,14.3c0,6.2,4,11.4,9.5,13.4v29.4h-9.5v-12.6l-2.4-1.4C-97-229.4-103.3-240.5-103.3-252.3z M-70-247.5
				c-2.6,0-4.8-2.1-4.8-4.8c0-2.6,2.1-4.8,4.8-4.8s4.8,2.1,4.8,4.8S-67.4-247.5-70-247.5z M100.4-200c0.7,4.8,1,9.6,1,14.3l0,17.4
				c0,38.1-18.8,73.9-50.3,95.6L49-71.3v61.8h-95.2v-42.9h-47.6v-58.1l-30.9-7l27.9-49.7l-0.3-1.7c-1.8-10.4-1.9-21.6-0.3-31.1h3.6
				h47.6L100.4-200L100.4-200z M88.7-209.5H75.3L99-264.9l10.6,5.3L88.7-209.5z M110.9-269.5l-5.3-2.6l5.3-3.9V-269.5z"/>
			<path class="st0" d="M-60.5-171.4c-7.9,0-14.3-4.8-14.3-14.3h-9.5c0,14.3,10.7,23.8,23.8,23.8s23.8-9.5,23.8-23.8h-9.5
				C-46.2-176.2-52.6-171.4-60.5-171.4z"/>
		</g>
	</g>
</g>
</svg>
