<?xml version="1.0" encoding="utf-8"?>
<!-- Generator: Adobe Illustrator 19.1.0, SVG Export Plug-In . SVG Version: 6.00 Build 0)  -->
<svg version="1.1" id="Layer_1" xmlns="http://www.w3.org/2000/svg" xmlns:xlink="http://www.w3.org/1999/xlink" x="0px" y="0px"
	 viewBox="-157 -295.2 295.2 295.2" style="enable-background:new -157 -295.2 295.2 295.2;" xml:space="preserve">
<style type="text/css">
	.st0{fill:#7F7F7F;}
</style>
<g>
	<g>
		<g>
			<path class="st0" d="M-51.8-171.2c-31.6,0-57.4,25.7-57.4,57.4c0,4.8,0.6,9.6,1.9,14.5l2.1,8l75.9-75.9l-8-2.1
				C-42.2-170.6-47.1-171.2-51.8-171.2z M-99.5-110.4c-0.1-1.2-0.1-2.3-0.1-3.4c0-26.4,21.5-47.8,47.8-47.8c1.1,0,2.3,0,3.4,0.1
				L-99.5-110.4z"/>
			<path class="st0" d="M116.6-228.6c-5.8,0-11.2,2.2-15.3,6.3l-10.8,10.7V-281c0-7.9-6.4-14.3-14.3-14.3H-95.1
				c-7.9,0-14.3,6.4-14.3,14.3v79.1c-28.6,18.8-47.6,51.2-47.6,88c0,28.1,10.9,54.5,30.8,74.4l3.4,3.4l13.4-13.4v35.3
				C-109.4-6.4-103,0-95.1,0H76.3c7.9,0,14.3-6.4,14.3-14.3v-136.1l41.3-41.3c4.1-4.1,6.3-9.5,6.3-15.3
				C138.2-218.9,128.6-228.6,116.6-228.6z M-11.8-85.3l-5.2-5.2l98-98l5.2,5.2L-11.8-85.3z M-9.8-69.8l-12.9,2.1l2.1-12.9L-9.8-69.8
				z M-99.9-281c0-2.6,2.1-4.8,4.8-4.8H76.3c2.6,0,4.8,2.1,4.8,4.8v23.8h-181V-281z M-99.9-247.6h181v45.6L-28.1-92.8l-6.1,36.7
				l36.7-6.1l78.7-78.7v93.3h-181v-11.5L25.9-184.9l-3.4-3.4C2.7-208.1-23.7-219-51.8-219c-17.3,0-33.6,4.2-48,11.7
				C-99.9-207.4-99.9-247.6-99.9-247.6z M-122.7-49.7c-1.2-1.4-2.3-2.8-3.5-4.2l7.6-5.5l-5.6-7.7l-7.6,5.5
				c-3.8-5.7-6.9-11.8-9.4-18.2l9-2.9l-2.9-9.1l-9,2.7c-1.8-6.6-2.8-10.9-3.1-20.4h9.3v-9.5h-9.3c0.3-4.8,1.4-13.5,3.2-20l8.9,3
				l2.9-9l-8.9-2.9c2.5-6.4,5.5-12.5,9.3-18.2l7.6,5.5l5.6-7.7l-7.6-5.5c4.3-5.3,9.1-10.2,14.5-14.5l5.5,7.6l7.7-5.6l-5.5-7.6
				c5.7-3.7,11.8-6.8,18.2-9.3l2.9,8.9l9.1-2.9l-3.1-8.9c6.5-1.8,15.2-2.8,20-3.2v9.3h9.5v-9.3c9.5,0.3,13.9,1.4,20.4,3.1l-2.8,9
				l9.1,2.9l3-9c6.4,2.4,12.5,5.6,18.2,9.4l-5.5,7.6l7.7,5.6l5.5-7.6c1.4,1.1,2.9,2.3,4.2,3.5L-122.7-49.7z M-14.1-23.8
				c0-2.6,2.1-4.8,4.8-4.8s4.8,2.1,4.8,4.8S-6.8-19-9.4-19C-12-19-14.1-21.2-14.1-23.8z M81.1-14.3c0,2.6-2.1,4.8-4.8,4.8H-9.4
				c7.9,0,14.3-6.4,14.3-14.3c0-7.9-6.4-14.3-14.3-14.3s-14.3,6.4-14.3,14.3c0,7.9,6.4,14.3,14.3,14.3h-85.7c-2.6,0-4.8-2.1-4.8-4.8
				v-23.8h90.5h90.5L81.1-14.3L81.1-14.3z M0.1-73.4L-5-78.6l98-98l5.2,5.2L0.1-73.4z M104.9-178.2l-17.1-17.1l7.6-7.6l17.1,17.1
				L104.9-178.2z M125.2-198.4l-6,6l-17.1-17.1l6-6c2.3-2.3,5.3-3.5,8.5-3.5c6.7,0,12.1,5.4,12.1,12.1
				C128.7-203.7,127.5-200.7,125.2-198.4z"/>
			<rect x="-38" y="-276.2" class="st0" width="57.1" height="9.5"/>
		</g>
	</g>
</g>
</svg>
