<?xml version="1.0" encoding="utf-8"?>
<!-- Generator: Adobe Illustrator 19.1.0, SVG Export Plug-In . SVG Version: 6.00 Build 0)  -->
<svg version="1.1" id="Layer_1" xmlns="http://www.w3.org/2000/svg" xmlns:xlink="http://www.w3.org/1999/xlink" x="0px" y="0px"
	 viewBox="-159 251 292 292" style="enable-background:new -159 251 292 292;" xml:space="preserve">
<style type="text/css">
	.st0{fill:#7F7F7F;}
</style>
<g>
	<g>
		<g>
			<path class="st0" d="M115.6,289.1v-23.8h-100V251h-57.1v14.3h-100v23.8h14.3v133.3h-14.3v23.8h74.3L-98.5,540l9,3l32.3-96.7h39.4
				v95.2h9.5v-95.2h39.4L63.4,543l9-3l-31.2-93.7h74.3v-23.8h-14.3V289.1H115.6z M-32.1,260.5H6v4.8h-38.1V260.5z M106,432v4.8H-8.2
				h-9.5h-114.3V432h4.8h228.6H106z M-117.8,422.4V289.1H91.8v133.3H-117.8z M-127.3,279.6h-4.8v0v-4.8h90.5h57.1H106v4.8h-4.8
				C101.3,279.6-127.3,279.6-127.3,279.6z"/>
			<path class="st0" d="M-108.2,412.9h90.5v-52.4h-90.5V412.9z M-98.7,370.1h71.4v33.3h0h-71.4V370.1z"/>
			<path class="st0" d="M-8.2,412.9h90.5v-52.4H-8.2V412.9z M1.3,370.1h71.4v33.3H1.3V370.1z"/>
			<path class="st0" d="M-51.1,298.6h-57.1V351h57.1V298.6z M-60.6,341.5h-38.1v-33.3h38.1L-60.6,341.5L-60.6,341.5z"/>
			<path class="st0" d="M15.6,298.6h-57.1V351h57.1V298.6z M6,341.5h-38.1v-33.3H6V341.5z"/>
			<path class="st0" d="M25.1,351h57.1v-52.4H25.1V351z M34.6,308.2h38.1v33.3H34.6V308.2z"/>
		</g>
	</g>
</g>
</svg>
