<?xml version="1.0" encoding="utf-8"?>
<!-- Generator: Adobe Illustrator 19.1.0, SVG Export Plug-In . SVG Version: 6.00 Build 0)  -->
<svg version="1.1" id="Layer_1" xmlns="http://www.w3.org/2000/svg" xmlns:xlink="http://www.w3.org/1999/xlink" x="0px" y="0px"
	 viewBox="-157 249.8 295.2 295.2" style="enable-background:new -157 249.8 295.2 295.2;" xml:space="preserve">
<style type="text/css">
	.st0{fill:#7F7F7F;}
</style>
<g>
	<g>
		<g>
			<path class="st0" d="M95.4,349.8H25.6l3.4-20.3l-38.4-49.3l-38.4,49.3l3.4,20.3h-69.8c-10.5,0-19,8.5-19,19v123.8
				c0,10.5,8.5,19,19,19h61.9v23.8h-19v9.5h19h85.7h19v-9.5h-19v-23.8h61.9c10.5,0,19-8.5,19-19V368.8
				C114.4,358.3,105.9,349.8,95.4,349.8z M-9.4,330.7c2.6,0,4.8,2.1,4.8,4.8c0,2.6-2.1,4.8-4.8,4.8s-4.8-2.1-4.8-4.8
				C-14.1,332.9-12,330.7-9.4,330.7z M-14.1,301.7v20.3c-5.5,2-9.5,7.2-9.5,13.4c0,7.9,6.4,14.3,14.3,14.3c7.9,0,14.3-6.4,14.3-14.3
				c0-6.2-4-11.4-9.5-13.4v-20.3L18.9,332l-8.5,51.1h-39.6l-8.5-51.1L-14.1,301.7z M-33.2,392.6h47.6c2.6,0,4.8,2.1,4.8,4.8
				s-2.1,4.8-4.8,4.8h-47.6c-2.6,0-4.8-2.1-4.8-4.8S-35.8,392.6-33.2,392.6z M9.7,445h-38.1v-33.3H9.7L9.7,445z M-38.6,384.2
				c-5.2,2.1-8.8,7.2-8.8,13.2c0,6.2,4,11.4,9.5,13.4V445c0,5.3,4.3,9.5,9.5,9.5H9.7c5.3,0,9.5-4.3,9.5-9.5v-34.2
				c5.5-2,9.5-7.2,9.5-13.4c0-6-3.7-11.1-8.8-13.2l1-5.8h65v104.8h-190.5V378.3h65L-38.6,384.2z M24,535.5h-66.7v-23.8H24V535.5z
				 M104.9,492.6L104.9,492.6c0,5.3-4.3,9.5-9.5,9.5H33.5h-85.7h-61.9c-5.3,0-9.5-4.3-9.5-9.5V368.8c0-5.3,4.3-9.5,9.5-9.5h71.4
				l1.6,9.5h-72.9v123.8H95.4V368.8h-73l1.6-9.5h71.4c5.3,0,9.5,4.3,9.5,9.5L104.9,492.6L104.9,492.6z"/>
			<path class="st0" d="M-85.6,278.3c6.2,0,11.4-4,13.4-9.5h28.6c-16.8,10.1-28.8,27.4-31.7,47.6h-10.3V345H-57v-28.6h-8.7
				c4.6-27,28-47.6,56.3-47.6s51.7,20.6,56.3,47.6h-8.7V345h28.6v-28.6H56.5c-2.9-20.2-14.9-37.5-31.7-47.6h23.9
				c2,5.5,7.2,9.5,13.4,9.5c7.9,0,14.3-6.4,14.3-14.3c0-7.9-6.4-14.3-14.3-14.3c-6.2,0-11.4,4-13.4,9.5H-72.2
				c-2-5.5-7.2-9.5-13.4-9.5c-7.9,0-14.3,6.4-14.3,14.3C-99.9,271.9-93.4,278.3-85.6,278.3z M-66.5,335.5H-76V326h9.5V335.5z
				 M47.8,326h9.5v9.5h-9.5V326z M62,259.3c2.6,0,4.8,2.1,4.8,4.8c0,2.6-2.1,4.8-4.8,4.8s-4.8-2.1-4.8-4.8
				C57.3,261.4,59.4,259.3,62,259.3z M-85.6,259.3c2.6,0,4.8,2.1,4.8,4.8c0,2.6-2.1,4.8-4.8,4.8s-4.8-2.1-4.8-4.8
				C-90.3,261.4-88.2,259.3-85.6,259.3z"/>
			<rect x="28.7" y="430.7" class="st0" width="9.5" height="9.5"/>
			<rect x="47.8" y="430.7" class="st0" width="9.5" height="9.5"/>
			<rect x="66.8" y="430.7" class="st0" width="9.5" height="9.5"/>
			<rect x="-95.1" y="430.7" class="st0" width="9.5" height="9.5"/>
			<rect x="-76" y="430.7" class="st0" width="9.5" height="9.5"/>
			<rect x="-57" y="430.7" class="st0" width="9.5" height="9.5"/>
		</g>
	</g>
</g>
</svg>
